<svg width="1765px" height="1335px" viewBox="0 0 1765 1335" xmlns="http://www.w3.org/2000/svg" xmlns:xlink="http://www.w3.org/1999/xlink" style="width: 1765px; height: 1335px;"><g transform="matrix(1, 0, 0, 1, 0, 0)" clip-path="url(#mainClip1327)"><rect x="0" y="0" width="1765" height="1335" fill="white" stroke="none" transform="matrix(1, 0, 0, 1, 0, 0)"/><g transform="matrix(1, 0, 0, 1, 0.9999999999999982, 1)"><g transform="matrix(1, 0, 0, 1, 234.88459485775937, 341.02604685435745)"><path d="M 0,25.36720484305316 C 38.17654609065448,-6.501592181662872 65.76441330241994,-7.790110596615676 109.56569967131122,17.507903491782457" fill="none" stroke="#CDD3DF" stroke-width="2" stroke-linecap="butt" stroke-linejoin="miter" stroke-miterlimit="10" transform="matrix(1, 0, 0, 1, 1, 1.0000000000000036)"/><path d="M 0,0 L 6,4.62 L 0,9.24 z" fill="#CDD3DF" stroke="none" transform="matrix(0.8659455256301413, 0.5001383275066392, -0.5001383275066392, 0.8659455256301413, 106.8147200649809, 11.006266870824733)"/><path d="M 0,0 L 6,4.62 L 0,9.24 z" fill="none" stroke="#CDD3DF" stroke-width="2" stroke-linecap="butt" stroke-linejoin="miter" stroke-miterlimit="10" transform="matrix(0.8659455256301413, 0.5001383275066392, -0.5001383275066392, 0.8659455256301413, 106.8147200649809, 11.006266870824733)"/></g><g transform="matrix(1, 0, 0, 1, 431.08689888410856, 373.8101733026616)"><path d="M 0,0.9561471809326321 C 56.775367517185316,-4.442916481131746 97.04425632919362,12.057194987313252 145.91840443328266,71.94914493290233" fill="none" stroke="#CDD3DF" stroke-width="2" stroke-linecap="butt" stroke-linejoin="miter" stroke-miterlimit="10" transform="matrix(1, 0, 0, 1, 1, 1)"/><path d="M 0,0 L 6,4.62 L 0,9.24 z" fill="#CDD3DF" stroke="none" transform="matrix(0.6322426498372694, 0.7747704380826285, -0.7747704380826285, 0.6322426498372694, 146.07214530836353, 64.60479082407575)"/><path d="M 0,0 L 6,4.62 L 0,9.24 z" fill="none" stroke="#CDD3DF" stroke-width="2" stroke-linecap="butt" stroke-linejoin="miter" stroke-miterlimit="10" transform="matrix(0.6322426498372694, 0.7747704380826285, -0.7747704380826285, 0.6322426498372694, 146.07214530836353, 64.60479082407575)"/></g><g transform="matrix(1, 0, 0, 1, 420.5437135707526, 342.7484336387023)"><path d="M 0,15.818574797222794 C 45.64316207035682,-8.292100269278237 77.81858377727349,-6.408696479083204 137.6139058288103,28.28381544786157" fill="none" stroke="#CDD3DF" stroke-width="2" stroke-linecap="butt" stroke-linejoin="miter" stroke-miterlimit="10" transform="matrix(1, 0, 0, 1, 1, 1)"/><path d="M 0,0 L 6,4.62 L 0,9.24 z" fill="#CDD3DF" stroke="none" transform="matrix(0.8649607094178863, 0.5018395870826722, -0.5018395870826722, 0.8649607094178863, 134.87767975520703, 21.774819860772233)"/><path d="M 0,0 L 6,4.62 L 0,9.24 z" fill="none" stroke="#CDD3DF" stroke-width="2" stroke-linecap="butt" stroke-linejoin="miter" stroke-miterlimit="10" transform="matrix(0.8649607094178863, 0.5018395870826722, -0.5018395870826722, 0.8649607094178863, 134.87767975520703, 21.774819860772233)"/></g><g transform="matrix(1, 0, 0, 1, 431.0755250463865, 388.6038375629015)"><path d="M 0,0 C 248.8743247041013,44.867339640159756 481.8391697375793,128.22606755327013 711.6464372085848,256.0676690054206" fill="none" stroke="#CDD3DF" stroke-width="2" stroke-linecap="butt" stroke-linejoin="miter" stroke-miterlimit="10" transform="matrix(1, 0, 0, 1, 1, 1)"/><path d="M 0,0 L 6,4.62 L 0,9.24 z" fill="#CDD3DF" stroke="none" transform="matrix(0.8738812485252299, 0.48613944859061314, -0.48613944859061314, 0.8738812485252299, 708.7752327213967, 249.62736149709977)"/><path d="M 0,0 L 6,4.62 L 0,9.24 z" fill="none" stroke="#CDD3DF" stroke-width="2" stroke-linecap="butt" stroke-linejoin="miter" stroke-miterlimit="10" transform="matrix(0.8738812485252299, 0.48613944859061314, -0.48613944859061314, 0.8738812485252299, 708.7752327213967, 249.62736149709977)"/></g><g transform="matrix(1, 0, 0, 1, 866.586135638046, 397.91053133038037)"><path d="M 0,21.74995421516371 C 50.59664434841768,-7.241461564313674 65.59664434841771,-7.241461564313674 109.7371784985789,21.698815170718344" fill="none" stroke="#CDD3DF" stroke-width="2" stroke-linecap="butt" stroke-linejoin="miter" stroke-miterlimit="10" transform="matrix(1, 0, 0, 1, 1, 1)"/><path d="M 0,0 L 6,4.62 L 0,9.24 z" fill="#CDD3DF" stroke="none" transform="matrix(0.8362820343389664, 0.5482995158140119, -0.5482995158140119, 0.8362820343389664, 107.41634802126687, 14.997095561374236)"/><path d="M 0,0 L 6,4.62 L 0,9.24 z" fill="none" stroke="#CDD3DF" stroke-width="2" stroke-linecap="butt" stroke-linejoin="miter" stroke-miterlimit="10" transform="matrix(0.8362820343389664, 0.5482995158140119, -0.5482995158140119, 0.8362820343389664, 107.41634802126687, 14.997095561374236)"/></g><g transform="matrix(1, 0, 0, 1, 902.1735653801104, 430.2757159438952)"><path d="M 0,0.5164198344365296 C 25.14673408015028,-2.9211585519333703 53.43419310906961,8.962807320776886 91.52243928328409,64.0593501861608" fill="none" stroke="#CDD3DF" stroke-width="2" stroke-linecap="butt" stroke-linejoin="miter" stroke-miterlimit="10" transform="matrix(1, 0, 0, 1, 1, 1.0000000000000007)"/><path d="M 0,0 L 6,4.62 L 0,9.24 z" fill="#CDD3DF" stroke="none" transform="matrix(0.5686495667269957, 0.8225798868567114, -0.8225798868567114, 0.5686495667269957, 92.34221139347312, 56.674129979885095)"/><path d="M 0,0 L 6,4.62 L 0,9.24 z" fill="none" stroke="#CDD3DF" stroke-width="2" stroke-linecap="butt" stroke-linejoin="miter" stroke-miterlimit="10" transform="matrix(0.5686495667269957, 0.8225798868567114, -0.8225798868567114, 0.5686495667269957, 92.34221139347312, 56.674129979885095)"/></g><g transform="matrix(1, 0, 0, 1, 1246.2085194554859, 604.0031386722758)"><path d="M 0,0 C 86.71791976097757,17.588635434776677 177.92914221047522,70.70434795645997 261.5549902151106,166.77667382917645" fill="none" stroke="#CDD3DF" stroke-width="2" stroke-linecap="butt" stroke-linejoin="miter" stroke-miterlimit="10" transform="matrix(1, 0, 0, 1, 1, 1)"/><path d="M 0,0 L 6,4.62 L 0,9.24 z" fill="#CDD3DF" stroke="none" transform="matrix(0.6565572755364607, 0.7542761721943363, -0.7542761721943363, 0.6565572755364607, 261.44384520189317, 159.46344601083763)"/><path d="M 0,0 L 6,4.62 L 0,9.24 z" fill="none" stroke="#CDD3DF" stroke-width="2" stroke-linecap="butt" stroke-linejoin="miter" stroke-miterlimit="10" transform="matrix(0.6565572755364607, 0.7542761721943363, -0.7542761721943363, 0.6565572755364607, 261.44384520189317, 159.46344601083763)"/></g><g transform="matrix(1, 0, 0, 1, 1230.887873944626, 685.1855676100572)"><path d="M 0,0 C 104.87956325958407,40.59596135467132 202.51832051701172,118.63094367113172 281.04820052303467,235.51845858085983" fill="none" stroke="#CDD3DF" stroke-width="2" stroke-linecap="butt" stroke-linejoin="miter" stroke-miterlimit="10" transform="matrix(1, 0, 0, 1, 1, 1)"/><path d="M 0,0 L 6,4.62 L 0,9.24 z" fill="#CDD3DF" stroke="none" transform="matrix(0.557670399756585, 0.8300624827296622, -0.8300624827296622, 0.557670399756585, 281.9793963949496, 228.1315839548768)"/><path d="M 0,0 L 6,4.62 L 0,9.24 z" fill="none" stroke="#CDD3DF" stroke-width="2" stroke-linecap="butt" stroke-linejoin="miter" stroke-miterlimit="10" transform="matrix(0.557670399756585, 0.8300624827296622, -0.8300624827296622, 0.557670399756585, 281.9793963949496, 228.1315839548768)"/></g><g transform="matrix(1, 0, 0, 1, 1188.2684197165777, 465.61546373515375)"><path d="M 0,175.4302456327521 C 33.570537755494115,83.12227966672364 89.90355989303725,25.561360871238094 155.7342263227049,0" fill="none" stroke="#CDD3DF" stroke-width="2" stroke-linecap="butt" stroke-linejoin="miter" stroke-miterlimit="10" transform="matrix(1, 0, 0, 1, 1, 4.17215632064333)"/><path d="M 0,0 L 6,4.62 L 0,9.24 z" fill="#CDD3DF" stroke="none" transform="matrix(0.9321932699334317, -0.36196091983916756, 0.36196091983916756, 0.9321932699334317, 148.53661398351392, 2.3991498524250483)"/><path d="M 0,0 L 6,4.62 L 0,9.24 z" fill="none" stroke="#CDD3DF" stroke-width="2" stroke-linecap="butt" stroke-linejoin="miter" stroke-miterlimit="10" transform="matrix(0.9321932699334317, -0.36196091983916756, 0.36196091983916756, 0.9321932699334317, 148.53661398351392, 2.3991498524250483)"/></g><g transform="matrix(1, 0, 0, 1, 1022.5156395809225, 427.2207471295738)"><path d="M 0,62.95529646933254 C 36.3865229037595,7.757010461945644 63.19635343936494,-3.9317699495644653 98.69959985629424,1.0265821178302748" fill="none" stroke="#CDD3DF" stroke-width="2" stroke-linecap="butt" stroke-linejoin="miter" stroke-miterlimit="10" transform="matrix(1, 0, 0, 1, 1, 5.1466847654793195)"/><path d="M 0,0 L 6,4.62 L 0,9.24 z" fill="#CDD3DF" stroke="none" transform="matrix(0.9903880475548741, 0.1383167208273986, -0.1383167208273986, 0.9903880475548741, 93.40590677363271, 0.6294570578142862)"/><path d="M 0,0 L 6,4.62 L 0,9.24 z" fill="none" stroke="#CDD3DF" stroke-width="2" stroke-linecap="butt" stroke-linejoin="miter" stroke-miterlimit="10" transform="matrix(0.9903880475548741, 0.1383167208273986, -0.1383167208273986, 0.9903880475548741, 93.40590677363271, 0.6294570578142862)"/></g><g transform="matrix(1, 0, 0, 1, 1038.5652704440927, 472.8998256365969)"><path d="M 0,21.684355444133068 C 41.30702370734571,-7.2307558705301815 67.47369037401234,-7.2307558705301815 110.53917626083421,21.700179779048007" fill="none" stroke="#CDD3DF" stroke-width="2" stroke-linecap="butt" stroke-linejoin="miter" stroke-miterlimit="10" transform="matrix(1, 0, 0, 1, 1, 1.0000000000000018)"/><path d="M 0,0 L 6,4.62 L 0,9.24 z" fill="#CDD3DF" stroke="none" transform="matrix(0.8300825018139101, 0.5576406012678417, -0.5576406012678417, 0.8300825018139101, 108.30489832599426, 14.961714411792855)"/><path d="M 0,0 L 6,4.62 L 0,9.24 z" fill="none" stroke="#CDD3DF" stroke-width="2" stroke-linecap="butt" stroke-linejoin="miter" stroke-miterlimit="10" transform="matrix(0.8300825018139101, 0.5576406012678417, -0.5576406012678417, 0.8300825018139101, 108.30489832599426, 14.961714411792855)"/></g><g transform="matrix(1, 0, 0, 1, 1035.0862835668142, 372.7176269470016)"><path d="M 0,117.33922521953608 C 98.08768799414122,39.534694440126685 195.10970876576914,3.9954967901764746 308.66565734205767,0" fill="none" stroke="#CDD3DF" stroke-width="2" stroke-linecap="butt" stroke-linejoin="miter" stroke-miterlimit="10" transform="matrix(1, 0, 0, 1, 1, 5.479345955356507)"/><path d="M 0,0 L 6,4.62 L 0,9.24 z" fill="#CDD3DF" stroke="none" transform="matrix(0.9993815725151426, -0.035163511160873205, 0.035163511160873205, 0.9993815725151426, 302.5075309128884, 1.1083476684626605)"/><path d="M 0,0 L 6,4.62 L 0,9.24 z" fill="none" stroke="#CDD3DF" stroke-width="2" stroke-linecap="butt" stroke-linejoin="miter" stroke-miterlimit="10" transform="matrix(0.9993815725151426, -0.035163511160873205, 0.035163511160873205, 0.9993815725151426, 302.5075309128884, 1.1083476684626605)"/></g><g transform="matrix(1, 0, 0, 1, 1203.8979842011072, 536.8511042003769)"><path d="M 0,0 C 137.90252285335464,124.66665291345248 243.36168635325703,277.56905825695986 314.0143729400736,458.75131530818254" fill="none" stroke="#CDD3DF" stroke-width="2" stroke-linecap="butt" stroke-linejoin="miter" stroke-miterlimit="10" transform="matrix(1, 0, 0, 1, 1, 1)"/><path d="M 0,0 L 6,4.62 L 0,9.24 z" fill="#CDD3DF" stroke="none" transform="matrix(0.3633078127782534, 0.9316691650872007, -0.9316691650872007, 0.3633078127782534, 316.77552979332864, 451.55114905753663)"/><path d="M 0,0 L 6,4.62 L 0,9.24 z" fill="none" stroke="#CDD3DF" stroke-width="2" stroke-linecap="butt" stroke-linejoin="miter" stroke-miterlimit="10" transform="matrix(0.3633078127782534, 0.9316691650872007, -0.9316691650872007, 0.3633078127782534, 316.77552979332864, 451.55114905753663)"/></g><g transform="matrix(1, 0, 0, 1, 1217.6686119499486, 761.6721265031207)"><path d="M 0,0 C 120.66669494121288,68.12535257510041 222.01056581363264,171.1013958716349 296.9759913905232,308.98341665445076" fill="none" stroke="#CDD3DF" stroke-width="2" stroke-linecap="butt" stroke-linejoin="miter" stroke-miterlimit="10" transform="matrix(1, 0, 0, 1, 1, 1)"/><path d="M 0,0 L 6,4.62 L 0,9.24 z" fill="#CDD3DF" stroke="none" transform="matrix(0.47765863980905154, 0.8785455160751586, -0.8785455160751586, 0.47765863980905154, 298.6912611961271, 301.6268151260068)"/><path d="M 0,0 L 6,4.62 L 0,9.24 z" fill="none" stroke="#CDD3DF" stroke-width="2" stroke-linecap="butt" stroke-linejoin="miter" stroke-miterlimit="10" transform="matrix(0.47765863980905154, 0.8785455160751586, -0.8785455160751586, 0.47765863980905154, 298.6912611961271, 301.6268151260068)"/></g><g transform="matrix(1, 0, 0, 1, 617.4756995748387, 411.31264785398025)"><path d="M 507.81285808748623,308.426991906912 C 330.2363267393563,247.19397780029178 158.43412888734758,145.0012235691631 0,0" fill="none" stroke="#CDD3DF" stroke-width="2" stroke-linecap="butt" stroke-linejoin="miter" stroke-miterlimit="10" transform="matrix(1, 0, 0, 1, 1.0492500598162722, 2.91943065437939)"/><path d="M 0,0 L 6,4.62 L 0,9.24 z" fill="#CDD3DF" stroke="none" transform="matrix(-0.737687485045932, -0.6751423364051523, 0.6751423364051523, -0.737687485045932, 3.093904860945992, 11.053543190127662)"/><path d="M 0,0 L 6,4.62 L 0,9.24 z" fill="none" stroke="#CDD3DF" stroke-width="2" stroke-linecap="butt" stroke-linejoin="miter" stroke-miterlimit="10" transform="matrix(-0.737687485045932, -0.6751423364051523, 0.6751423364051523, -0.737687485045932, 3.093904860945992, 11.053543190127662)"/></g><g transform="matrix(1, 0, 0, 1, 94.80565017908944, 269.76142374915406)"><path d="M 0,21.630975934143354 C 34.47862106837252,-7.215911326353556 49.478621068372476,-7.215911326353556 87.17414589022188,21.66449202397798" fill="none" stroke="#CDD3DF" stroke-width="2" stroke-linecap="butt" stroke-linejoin="miter" stroke-miterlimit="10" transform="matrix(1, 0, 0, 1, 1, 1)"/><path d="M 0,0 L 6,4.62 L 0,9.24 z" fill="#CDD3DF" stroke="none" transform="matrix(0.7938045874645658, 0.6081729005144922, -0.6081729005144922, 0.7938045874645658, 85.42727257834687, 14.739904526290243)"/><path d="M 0,0 L 6,4.62 L 0,9.24 z" fill="none" stroke="#CDD3DF" stroke-width="2" stroke-linecap="butt" stroke-linejoin="miter" stroke-miterlimit="10" transform="matrix(0.7938045874645658, 0.6081729005144922, -0.6081729005144922, 0.7938045874645658, 85.42727257834687, 14.739904526290243)"/></g><g transform="matrix(1, 0, 0, 1, 114.27499754420376, 305.21743625453524)"><path d="M 0,1.190560853528698 C 39.55689927375346,-4.234453918882689 61.082120134539,7.295032828474181 85.51009630395106,60.90666391745414" fill="none" stroke="#CDD3DF" stroke-width="2" stroke-linecap="butt" stroke-linejoin="miter" stroke-miterlimit="10" transform="matrix(1, 0, 0, 1, 1, 1)"/><path d="M 0,0 L 6,4.62 L 0,9.24 z" fill="#CDD3DF" stroke="none" transform="matrix(0.414633484961993, 0.9099885016571763, -0.9099885016571763, 0.414633484961993, 87.81180878687326, 53.621137705329495)"/><path d="M 0,0 L 6,4.62 L 0,9.24 z" fill="none" stroke="#CDD3DF" stroke-width="2" stroke-linecap="butt" stroke-linejoin="miter" stroke-miterlimit="10" transform="matrix(0.414633484961993, 0.9099885016571763, -0.9099885016571763, 0.414633484961993, 87.81180878687326, 53.621137705329495)"/></g><g transform="matrix(1, 0, 0, 1, 660.3544200958019, 370.0657238903549)"><path d="M 0,4.706666599855652 C 43.05840750944412,-6.5659480421852265 75.24645594801495,0.0786116006609916 141.33387629739946,49.493094536949826" fill="none" stroke="#CDD3DF" stroke-width="2" stroke-linecap="butt" stroke-linejoin="miter" stroke-miterlimit="10" transform="matrix(1, 0, 0, 1, 1, 1)"/><path d="M 0,0 L 6,4.62 L 0,9.24 z" fill="#CDD3DF" stroke="none" transform="matrix(0.8008779669364668, 0.5988275896079868, -0.5988275896079868, 0.8008779669364668, 139.49431399283307, 42.60124520244744)"/><path d="M 0,0 L 6,4.62 L 0,9.24 z" fill="none" stroke="#CDD3DF" stroke-width="2" stroke-linecap="butt" stroke-linejoin="miter" stroke-miterlimit="10" transform="matrix(0.8008779669364668, 0.5988275896079868, -0.5988275896079868, 0.8008779669364668, 139.49431399283307, 42.60124520244744)"/></g><g transform="matrix(1, 0, 0, 1, 661.1309381663825, 399.48144304717357)"><path d="M 0,0 C 165.29848695518865,18.412747844352396 319.8325411167284,70.78359664422382 484.49352882184394,170.15949413772498" fill="none" stroke="#CDD3DF" stroke-width="2" stroke-linecap="butt" stroke-linejoin="miter" stroke-miterlimit="10" transform="matrix(1, 0, 0, 1, 1, 1)"/><path d="M 0,0 L 6,4.62 L 0,9.24 z" fill="#CDD3DF" stroke="none" transform="matrix(0.8561611897993014, 0.516708832014167, -0.516708832014167, 0.8561611897993014, 481.8875952971543, 163.58706761675305)"/><path d="M 0,0 L 6,4.62 L 0,9.24 z" fill="none" stroke="#CDD3DF" stroke-width="2" stroke-linecap="butt" stroke-linejoin="miter" stroke-miterlimit="10" transform="matrix(0.8561611897993014, 0.516708832014167, -0.516708832014167, 0.8561611897993014, 481.8875952971543, 163.58706761675305)"/></g><g transform="matrix(1, 0, 0, 1, 631.071307885435, 413.0537760028528)"><path d="M 0,0 C 313.3354196439135,179.38457791938072 605.2308703436446,398.6432349230244 873.2684090615379,657.7852364343669" fill="none" stroke="#CDD3DF" stroke-width="2" stroke-linecap="butt" stroke-linejoin="miter" stroke-miterlimit="10" transform="matrix(1, 0, 0, 1, 1, 1)"/><path d="M 0,0 L 6,4.62 L 0,9.24 z" fill="#CDD3DF" stroke="none" transform="matrix(0.7189360371789224, 0.6950762364269599, -0.6950762364269599, 0.7189360371789224, 872.4471090135779, 650.5982182876115)"/><path d="M 0,0 L 6,4.62 L 0,9.24 z" fill="none" stroke="#CDD3DF" stroke-width="2" stroke-linecap="butt" stroke-linejoin="miter" stroke-miterlimit="10" transform="matrix(0.7189360371789224, 0.6950762364269599, -0.6950762364269599, 0.7189360371789224, 872.4471090135779, 650.5982182876115)"/></g><g transform="matrix(1, 0, 0, 1, 661.1183846586225, 405.1373920824866)"><path d="M 0,0 C 280.2744919893455,54.97707814270109 551.0684799394567,149.416596243094 824.6201353419406,290.9372010050745" fill="none" stroke="#CDD3DF" stroke-width="2" stroke-linecap="butt" stroke-linejoin="miter" stroke-miterlimit="10" transform="matrix(1, 0, 0, 1, 1, 1)"/><path d="M 0,0 L 6,4.62 L 0,9.24 z" fill="#CDD3DF" stroke="none" transform="matrix(0.8881800528991639, 0.45949558608547963, -0.45949558608547963, 0.8881800528991639, 821.5257445793613, 284.617340058082)"/><path d="M 0,0 L 6,4.62 L 0,9.24 z" fill="none" stroke="#CDD3DF" stroke-width="2" stroke-linecap="butt" stroke-linejoin="miter" stroke-miterlimit="10" transform="matrix(0.8881800528991639, 0.45949558608547963, -0.45949558608547963, 0.8881800528991639, 821.5257445793613, 284.617340058082)"/></g><g transform="matrix(1, 0, 0, 1, 640.6022342182848, 479.5798445021769)"><path d="M 0,0 C 297.972037451663,80.79509743450055 577.8735168865305,200.93757080903848 850.9698930642926,366.43597578042613" fill="none" stroke="#CDD3DF" stroke-width="2" stroke-linecap="butt" stroke-linejoin="miter" stroke-miterlimit="10" transform="matrix(1, 0, 0, 1, 1, 1)"/><path d="M 0,0 L 6,4.62 L 0,9.24 z" fill="#CDD3DF" stroke="none" transform="matrix(0.8552180276660458, 0.5182683910436738, -0.5182683910436738, 0.8552180276660458, 848.377766837252, 359.8569897553033)"/><path d="M 0,0 L 6,4.62 L 0,9.24 z" fill="none" stroke="#CDD3DF" stroke-width="2" stroke-linecap="butt" stroke-linejoin="miter" stroke-miterlimit="10" transform="matrix(0.8552180276660458, 0.5182683910436738, -0.5182683910436738, 0.8552180276660458, 848.377766837252, 359.8569897553033)"/></g><g transform="matrix(1, 0, 0, 1, 1.7763568394002505e-15, 209.99999999999997)"><path d="M 5,0 L 1756.3198649763112,0 C 1758.5584412271573,0 1761.3198649763112,2.761423749153968 1761.3198649763112,5 L 1761.3198649763112,1033.1026311685705 C 1761.3198649763112,1035.3412074194166 1758.5584412271573,1038.1026311685705 1756.3198649763112,1038.1026311685705 L 5,1038.1026311685705 C 2.761423749153968,1038.1026311685705 0,1035.3412074194166 0,1033.1026311685705 L 0,5 C 0,2.761423749153968 2.761423749153968,0 5,0 z" fill="#FFFFFF00" stroke="none" transform="matrix(1, 0, 0, 1, 0.5, 0.5)"/><path d="M 5,0 L 1756.3198649763112,0 C 1758.5584412271573,0 1761.3198649763112,2.761423749153968 1761.3198649763112,5 L 1761.3198649763112,1033.1026311685705 C 1761.3198649763112,1035.3412074194166 1758.5584412271573,1038.1026311685705 1756.3198649763112,1038.1026311685705 L 5,1038.1026311685705 C 2.761423749153968,1038.1026311685705 0,1035.3412074194166 0,1033.1026311685705 L 0,5 C 0,2.761423749153968 2.761423749153968,0 5,0 z" fill="none" stroke="#CDD3DF" stroke-width="1" stroke-linecap="butt" stroke-linejoin="miter" stroke-miterlimit="10" transform="matrix(1, 0, 0, 1, 0.5, 0.5)"/><g transform="matrix(1, 0, 0, 1, 3.7614237491540816, 3.7614237491540816)"><g transform="matrix(1, 0, 0, 1, 15, 15)"><path d="M 2,0 L 19,0 C 19.895430500338414,0 21,1.1045694996615871 21,2 L 21,19 C 21,19.895430500338414 19.895430500338414,21 19,21 L 2,21 C 1.1045694996615871,21 0,19.895430500338414 0,19 L 0,2 C 0,1.1045694996615871 1.1045694996615871,0 2,0 z" fill="#F0F2F6" stroke="none" transform="matrix(1, 0, 0, 1, 3.5, 3.5)"/><path d="M 2,0 L 19,0 C 19.895430500338414,0 21,1.1045694996615871 21,2 L 21,19 C 21,19.895430500338414 19.895430500338414,21 19,21 L 2,21 C 1.1045694996615871,21 0,19.895430500338414 0,19 L 0,2 C 0,1.1045694996615871 1.1045694996615871,0 2,0 z" fill="none" stroke="#F0F2F6" stroke-width="1" stroke-linecap="butt" stroke-linejoin="miter" stroke-miterlimit="10" transform="matrix(1, 0, 0, 1, 3.5, 3.5)"/><path d="M 0,2 L 4,6 L 8,2" fill="none" stroke="#424242" stroke-width="2" stroke-linecap="round" stroke-linejoin="round" stroke-miterlimit="10" transform="matrix(1, 0, 0, 1, 10, 10)"/></g><text x="0" y="14.625" style="font: bold 16px -apple-system, BlinkMacSystemFont, &quot;Segoe UI&quot;, &quot;Roboto&quot;, &quot;Oxygen&quot;, &quot;Ubuntu&quot;, &quot;Cantarell&quot;, &quot;Fira Sans&quot;, &quot;Droid Sans&quot;, &quot;Helvetica Neue&quot;, sans-serif" text-anchor="start" fill="#021443" stroke="none" transform="matrix(1, 0, 0, 1, 46, 19.25)">src/</text></g></g><g transform="matrix(1, 0, 0, 1, 305.80711874576974, 299.27266492449263)"><path d="M 5,0 L 146.04569499661588,0 C 148.2842712474619,0 151.04569499661588,2.761423749153968 151.04569499661588,5 L 151.04569499661588,122.54569499661588 C 151.04569499661588,124.78427124746192 148.2842712474619,127.54569499661588 146.04569499661588,127.54569499661588 L 5,127.54569499661588 C 2.761423749153968,127.54569499661588 0,124.78427124746192 0,122.54569499661588 L 0,5 C 0,2.761423749153968 2.761423749153968,0 5,0 z" fill="#FFFFFF00" stroke="none" transform="matrix(1, 0, 0, 1, 0.5, 0.5)"/><path d="M 5,0 L 146.04569499661588,0 C 148.2842712474619,0 151.04569499661588,2.761423749153968 151.04569499661588,5 L 151.04569499661588,122.54569499661588 C 151.04569499661588,124.78427124746192 148.2842712474619,127.54569499661588 146.04569499661588,127.54569499661588 L 5,127.54569499661588 C 2.761423749153968,127.54569499661588 0,124.78427124746192 0,122.54569499661588 L 0,5 C 0,2.761423749153968 2.761423749153968,0 5,0 z" fill="none" stroke="#CDD3DF" stroke-width="1" stroke-linecap="butt" stroke-linejoin="miter" stroke-miterlimit="10" transform="matrix(1, 0, 0, 1, 0.5, 0.5)"/><g transform="matrix(1, 0, 0, 1, 3.7614237491539537, 3.761423749153968)"><g transform="matrix(1, 0, 0, 1, 15, 15)"><path d="M 2,0 L 19,0 C 19.895430500338414,0 21,1.1045694996615871 21,2 L 21,19 C 21,19.895430500338414 19.895430500338414,21 19,21 L 2,21 C 1.1045694996615871,21 0,19.895430500338414 0,19 L 0,2 C 0,1.1045694996615871 1.1045694996615871,0 2,0 z" fill="#F0F2F6" stroke="none" transform="matrix(1, 0, 0, 1, 3.5, 3.5)"/><path d="M 2,0 L 19,0 C 19.895430500338414,0 21,1.1045694996615871 21,2 L 21,19 C 21,19.895430500338414 19.895430500338414,21 19,21 L 2,21 C 1.1045694996615871,21 0,19.895430500338414 0,19 L 0,2 C 0,1.1045694996615871 1.1045694996615871,0 2,0 z" fill="none" stroke="#F0F2F6" stroke-width="1" stroke-linecap="butt" stroke-linejoin="miter" stroke-miterlimit="10" transform="matrix(1, 0, 0, 1, 3.5, 3.5)"/><path d="M 0,2 L 4,6 L 8,2" fill="none" stroke="#424242" stroke-width="2" stroke-linecap="round" stroke-linejoin="round" stroke-miterlimit="10" transform="matrix(1, 0, 0, 1, 10, 10)"/></g><text x="0" y="14.625" style="font: bold 16px -apple-system, BlinkMacSystemFont, &quot;Segoe UI&quot;, &quot;Roboto&quot;, &quot;Oxygen&quot;, &quot;Ubuntu&quot;, &quot;Cantarell&quot;, &quot;Fira Sans&quot;, &quot;Droid Sans&quot;, &quot;Helvetica Neue&quot;, sans-serif" text-anchor="start" fill="#021443" stroke="none" transform="matrix(1, 0, 0, 1, 46, 19.25)">app/</text></g></g><g transform="matrix(1, 0, 0, 1, 1317.9898987322333, 295.26124117533857)"><path d="M 5,0 L 412.568542494924,0 C 414.80711874577,0 417.568542494924,2.761423749153968 417.568542494924,5 L 417.568542494924,280.56854249492386 C 417.568542494924,282.8071187457699 414.80711874577,285.56854249492386 412.568542494924,285.56854249492386 L 5,285.56854249492386 C 2.761423749153968,285.56854249492386 0,282.8071187457699 0,280.56854249492386 L 0,5 C 0,2.761423749153968 2.761423749153968,0 5,0 z" fill="#FFFFFF00" stroke="none" transform="matrix(1, 0, 0, 1, 0.5, 0.5)"/><path d="M 5,0 L 412.568542494924,0 C 414.80711874577,0 417.568542494924,2.761423749153968 417.568542494924,5 L 417.568542494924,280.56854249492386 C 417.568542494924,282.8071187457699 414.80711874577,285.56854249492386 412.568542494924,285.56854249492386 L 5,285.56854249492386 C 2.761423749153968,285.56854249492386 0,282.8071187457699 0,280.56854249492386 L 0,5 C 0,2.761423749153968 2.761423749153968,0 5,0 z" fill="none" stroke="#CDD3DF" stroke-width="1" stroke-linecap="butt" stroke-linejoin="miter" stroke-miterlimit="10" transform="matrix(1, 0, 0, 1, 0.5, 0.5)"/><g transform="matrix(1, 0, 0, 1, 3.7614237491539964, 3.7614237491539964)"><g transform="matrix(1, 0, 0, 1, 15, 15)"><path d="M 2,0 L 19,0 C 19.895430500338414,0 21,1.1045694996615871 21,2 L 21,19 C 21,19.895430500338414 19.895430500338414,21 19,21 L 2,21 C 1.1045694996615871,21 0,19.895430500338414 0,19 L 0,2 C 0,1.1045694996615871 1.1045694996615871,0 2,0 z" fill="#F0F2F6" stroke="none" transform="matrix(1, 0, 0, 1, 3.5, 3.5)"/><path d="M 2,0 L 19,0 C 19.895430500338414,0 21,1.1045694996615871 21,2 L 21,19 C 21,19.895430500338414 19.895430500338414,21 19,21 L 2,21 C 1.1045694996615871,21 0,19.895430500338414 0,19 L 0,2 C 0,1.1045694996615871 1.1045694996615871,0 2,0 z" fill="none" stroke="#F0F2F6" stroke-width="1" stroke-linecap="butt" stroke-linejoin="miter" stroke-miterlimit="10" transform="matrix(1, 0, 0, 1, 3.5, 3.5)"/><path d="M 0,2 L 4,6 L 8,2" fill="none" stroke="#424242" stroke-width="2" stroke-linecap="round" stroke-linejoin="round" stroke-miterlimit="10" transform="matrix(1, 0, 0, 1, 10, 10)"/></g><text x="0" y="14.625" style="font: bold 16px -apple-system, BlinkMacSystemFont, &quot;Segoe UI&quot;, &quot;Roboto&quot;, &quot;Oxygen&quot;, &quot;Ubuntu&quot;, &quot;Cantarell&quot;, &quot;Fira Sans&quot;, &quot;Droid Sans&quot;, &quot;Helvetica Neue&quot;, sans-serif" text-anchor="start" fill="#021443" stroke="none" transform="matrix(1, 0, 0, 1, 46, 19.25)">assets/</text></g></g><g transform="matrix(1, 0, 0, 1, 732.8985087390018, 338.14910758122636)"><path d="M 5,0 L 534.0913899932318,0 C 536.3299662440778,0 539.0913899932318,2.761423749153968 539.0913899932318,5 L 539.0913899932318,444.7928096831482 C 539.0913899932318,447.0313859339943 536.3299662440778,449.7928096831482 534.0913899932318,449.7928096831482 L 5,449.7928096831482 C 2.761423749153968,449.7928096831482 0,447.0313859339943 0,444.7928096831482 L 0,5 C 0,2.761423749153968 2.761423749153968,0 5,0 z" fill="#FFFFFF00" stroke="none" transform="matrix(1, 0, 0, 1, 0.5, 0.5)"/><path d="M 5,0 L 534.0913899932318,0 C 536.3299662440778,0 539.0913899932318,2.761423749153968 539.0913899932318,5 L 539.0913899932318,444.7928096831482 C 539.0913899932318,447.0313859339943 536.3299662440778,449.7928096831482 534.0913899932318,449.7928096831482 L 5,449.7928096831482 C 2.761423749153968,449.7928096831482 0,447.0313859339943 0,444.7928096831482 L 0,5 C 0,2.761423749153968 2.761423749153968,0 5,0 z" fill="none" stroke="#CDD3DF" stroke-width="1" stroke-linecap="butt" stroke-linejoin="miter" stroke-miterlimit="10" transform="matrix(1, 0, 0, 1, 0.5, 0.5)"/><g transform="matrix(1, 0, 0, 1, 3.761423749153911, 3.7614237491539964)"><g transform="matrix(1, 0, 0, 1, 15, 15)"><path d="M 2,0 L 19,0 C 19.895430500338414,0 21,1.1045694996615871 21,2 L 21,19 C 21,19.895430500338414 19.895430500338414,21 19,21 L 2,21 C 1.1045694996615871,21 0,19.895430500338414 0,19 L 0,2 C 0,1.1045694996615871 1.1045694996615871,0 2,0 z" fill="#F0F2F6" stroke="none" transform="matrix(1, 0, 0, 1, 3.5, 3.5)"/><path d="M 2,0 L 19,0 C 19.895430500338414,0 21,1.1045694996615871 21,2 L 21,19 C 21,19.895430500338414 19.895430500338414,21 19,21 L 2,21 C 1.1045694996615871,21 0,19.895430500338414 0,19 L 0,2 C 0,1.1045694996615871 1.1045694996615871,0 2,0 z" fill="none" stroke="#F0F2F6" stroke-width="1" stroke-linecap="butt" stroke-linejoin="miter" stroke-miterlimit="10" transform="matrix(1, 0, 0, 1, 3.5, 3.5)"/><path d="M 0,2 L 4,6 L 8,2" fill="none" stroke="#424242" stroke-width="2" stroke-linecap="round" stroke-linejoin="round" stroke-miterlimit="10" transform="matrix(1, 0, 0, 1, 10, 10)"/></g><text x="0" y="14.625" style="font: bold 16px -apple-system, BlinkMacSystemFont, &quot;Segoe UI&quot;, &quot;Roboto&quot;, &quot;Oxygen&quot;, &quot;Ubuntu&quot;, &quot;Cantarell&quot;, &quot;Fira Sans&quot;, &quot;Droid Sans&quot;, &quot;Helvetica Neue&quot;, sans-serif" text-anchor="start" fill="#021443" stroke="none" transform="matrix(1, 0, 0, 1, 46, 19.25)">components/</text></g></g><g transform="matrix(1, 0, 0, 1, 502.8528137423859, 311.77266492449263)"><path d="M 5,0 L 179.04569499661582,0 C 181.28427124746185,0 184.04569499661582,2.761423749153968 184.04569499661582,5 L 184.04569499661582,197.54569499661588 C 184.04569499661582,199.7842712474619 181.28427124746185,202.54569499661588 179.04569499661582,202.54569499661588 L 5,202.54569499661588 C 2.761423749153968,202.54569499661588 0,199.7842712474619 0,197.54569499661588 L 0,5 C 0,2.761423749153968 2.761423749153968,0 5,0 z" fill="#FFFFFF00" stroke="none" transform="matrix(1, 0, 0, 1, 0.5, 0.5)"/><path d="M 5,0 L 179.04569499661582,0 C 181.28427124746185,0 184.04569499661582,2.761423749153968 184.04569499661582,5 L 184.04569499661582,197.54569499661588 C 184.04569499661582,199.7842712474619 181.28427124746185,202.54569499661588 179.04569499661582,202.54569499661588 L 5,202.54569499661588 C 2.761423749153968,202.54569499661588 0,199.7842712474619 0,197.54569499661588 L 0,5 C 0,2.761423749153968 2.761423749153968,0 5,0 z" fill="none" stroke="#CDD3DF" stroke-width="1" stroke-linecap="butt" stroke-linejoin="miter" stroke-miterlimit="10" transform="matrix(1, 0, 0, 1, 0.5, 0.5)"/><g transform="matrix(1, 0, 0, 1, 3.7614237491539537, 3.7614237491539537)"><g transform="matrix(1, 0, 0, 1, 15, 15)"><path d="M 2,0 L 19,0 C 19.895430500338414,0 21,1.1045694996615871 21,2 L 21,19 C 21,19.895430500338414 19.895430500338414,21 19,21 L 2,21 C 1.1045694996615871,21 0,19.895430500338414 0,19 L 0,2 C 0,1.1045694996615871 1.1045694996615871,0 2,0 z" fill="#F0F2F6" stroke="none" transform="matrix(1, 0, 0, 1, 3.5, 3.5)"/><path d="M 2,0 L 19,0 C 19.895430500338414,0 21,1.1045694996615871 21,2 L 21,19 C 21,19.895430500338414 19.895430500338414,21 19,21 L 2,21 C 1.1045694996615871,21 0,19.895430500338414 0,19 L 0,2 C 0,1.1045694996615871 1.1045694996615871,0 2,0 z" fill="none" stroke="#F0F2F6" stroke-width="1" stroke-linecap="butt" stroke-linejoin="miter" stroke-miterlimit="10" transform="matrix(1, 0, 0, 1, 3.5, 3.5)"/><path d="M 0,2 L 4,6 L 8,2" fill="none" stroke="#424242" stroke-width="2" stroke-linecap="round" stroke-linejoin="round" stroke-miterlimit="10" transform="matrix(1, 0, 0, 1, 10, 10)"/></g><text x="0" y="14.625" style="font: bold 16px -apple-system, BlinkMacSystemFont, &quot;Segoe UI&quot;, &quot;Roboto&quot;, &quot;Oxygen&quot;, &quot;Ubuntu&quot;, &quot;Cantarell&quot;, &quot;Fira Sans&quot;, &quot;Droid Sans&quot;, &quot;Helvetica Neue&quot;, sans-serif" text-anchor="start" fill="#021443" stroke="none" transform="matrix(1, 0, 0, 1, 46, 19.25)">pages/</text></g></g><g transform="matrix(1, 0, 0, 1, 1429.2513224813872, 636.7726649244926)"><path d="M 5,0 L 190.04569499661594,0 C 192.28427124746196,0 195.04569499661594,2.761423749153968 195.04569499661594,5 L 195.04569499661594,497.5456949966161 C 195.04569499661594,499.78427124746213 192.28427124746196,502.5456949966161 190.04569499661594,502.5456949966161 L 5,502.5456949966161 C 2.761423749153968,502.5456949966161 0,499.78427124746213 0,497.5456949966161 L 0,5 C 0,2.761423749153968 2.761423749153968,0 5,0 z" fill="#FFFFFF00" stroke="none" transform="matrix(1, 0, 0, 1, 0.5, 0.5)"/><path d="M 5,0 L 190.04569499661594,0 C 192.28427124746196,0 195.04569499661594,2.761423749153968 195.04569499661594,5 L 195.04569499661594,497.5456949966161 C 195.04569499661594,499.78427124746213 192.28427124746196,502.5456949966161 190.04569499661594,502.5456949966161 L 5,502.5456949966161 C 2.761423749153968,502.5456949966161 0,499.78427124746213 0,497.5456949966161 L 0,5 C 0,2.761423749153968 2.761423749153968,0 5,0 z" fill="none" stroke="#CDD3DF" stroke-width="1" stroke-linecap="butt" stroke-linejoin="miter" stroke-miterlimit="10" transform="matrix(1, 0, 0, 1, 0.5, 0.5)"/><g transform="matrix(1, 0, 0, 1, 3.7614237491539537, 3.7614237491539964)"><g transform="matrix(1, 0, 0, 1, 15, 15)"><path d="M 2,0 L 19,0 C 19.895430500338414,0 21,1.1045694996615871 21,2 L 21,19 C 21,19.895430500338414 19.895430500338414,21 19,21 L 2,21 C 1.1045694996615871,21 0,19.895430500338414 0,19 L 0,2 C 0,1.1045694996615871 1.1045694996615871,0 2,0 z" fill="#F0F2F6" stroke="none" transform="matrix(1, 0, 0, 1, 3.5, 3.5)"/><path d="M 2,0 L 19,0 C 19.895430500338414,0 21,1.1045694996615871 21,2 L 21,19 C 21,19.895430500338414 19.895430500338414,21 19,21 L 2,21 C 1.1045694996615871,21 0,19.895430500338414 0,19 L 0,2 C 0,1.1045694996615871 1.1045694996615871,0 2,0 z" fill="none" stroke="#F0F2F6" stroke-width="1" stroke-linecap="butt" stroke-linejoin="miter" stroke-miterlimit="10" transform="matrix(1, 0, 0, 1, 3.5, 3.5)"/><path d="M 0,2 L 4,6 L 8,2" fill="none" stroke="#424242" stroke-width="2" stroke-linecap="round" stroke-linejoin="round" stroke-miterlimit="10" transform="matrix(1, 0, 0, 1, 10, 10)"/></g><text x="0" y="14.625" style="font: bold 16px -apple-system, BlinkMacSystemFont, &quot;Segoe UI&quot;, &quot;Roboto&quot;, &quot;Oxygen&quot;, &quot;Ubuntu&quot;, &quot;Cantarell&quot;, &quot;Fira Sans&quot;, &quot;Droid Sans&quot;, &quot;Helvetica Neue&quot;, sans-serif" text-anchor="start" fill="#021443" stroke="none" transform="matrix(1, 0, 0, 1, 46, 19.25)">styles/</text></g></g><g transform="matrix(1, 0, 0, 1, 1.7763568394002505e-15, 0)"><path d="M 5,0 L 466.09138999323176,0 C 468.3299662440778,0 471.09138999323176,2.761423749153968 471.09138999323176,5 L 471.09138999323176,175.56854249492383 C 471.09138999323176,177.80711874576986 468.3299662440778,180.56854249492383 466.09138999323176,180.56854249492383 L 5,180.56854249492383 C 2.761423749153968,180.56854249492383 0,177.80711874576986 0,175.56854249492383 L 0,5 C 0,2.761423749153968 2.761423749153968,0 5,0 z" fill="#FFFFFF00" stroke="none" transform="matrix(1, 0, 0, 1, 0.5, 0.5)"/><path d="M 5,0 L 466.09138999323176,0 C 468.3299662440778,0 471.09138999323176,2.761423749153968 471.09138999323176,5 L 471.09138999323176,175.56854249492383 C 471.09138999323176,177.80711874576986 468.3299662440778,180.56854249492383 466.09138999323176,180.56854249492383 L 5,180.56854249492383 C 2.761423749153968,180.56854249492383 0,177.80711874576986 0,175.56854249492383 L 0,5 C 0,2.761423749153968 2.761423749153968,0 5,0 z" fill="none" stroke="#CDD3DF" stroke-width="1" stroke-linecap="butt" stroke-linejoin="miter" stroke-miterlimit="10" transform="matrix(1, 0, 0, 1, 0.5, 0.5)"/><g transform="matrix(1, 0, 0, 1, 3.7614237491539964, 3.7614237491539537)"><g transform="matrix(1, 0, 0, 1, 15, 15)"><path d="M 2,0 L 19,0 C 19.895430500338414,0 21,1.1045694996615871 21,2 L 21,19 C 21,19.895430500338414 19.895430500338414,21 19,21 L 2,21 C 1.1045694996615871,21 0,19.895430500338414 0,19 L 0,2 C 0,1.1045694996615871 1.1045694996615871,0 2,0 z" fill="#F0F2F6" stroke="none" transform="matrix(1, 0, 0, 1, 3.5, 3.5)"/><path d="M 2,0 L 19,0 C 19.895430500338414,0 21,1.1045694996615871 21,2 L 21,19 C 21,19.895430500338414 19.895430500338414,21 19,21 L 2,21 C 1.1045694996615871,21 0,19.895430500338414 0,19 L 0,2 C 0,1.1045694996615871 1.1045694996615871,0 2,0 z" fill="none" stroke="#F0F2F6" stroke-width="1" stroke-linecap="butt" stroke-linejoin="miter" stroke-miterlimit="10" transform="matrix(1, 0, 0, 1, 3.5, 3.5)"/><path d="M 0,2 L 4,6 L 8,2" fill="none" stroke="#424242" stroke-width="2" stroke-linecap="round" stroke-linejoin="round" stroke-miterlimit="10" transform="matrix(1, 0, 0, 1, 10, 10)"/></g><text x="0" y="14.625" style="font: bold 16px -apple-system, BlinkMacSystemFont, &quot;Segoe UI&quot;, &quot;Roboto&quot;, &quot;Oxygen&quot;, &quot;Ubuntu&quot;, &quot;Cantarell&quot;, &quot;Fira Sans&quot;, &quot;Droid Sans&quot;, &quot;Helvetica Neue&quot;, sans-serif" text-anchor="start" fill="#021443" stroke="none" transform="matrix(1, 0, 0, 1, 46, 19.25)">public/</text></g></g><g transform="matrix(1, 0, 0, 1, 331.5685424949237, 359.0340886736466)"><path d="M 5,0 L 93.52284749830794,0 C 95.76142374915398,0 98.52284749830794,2.761423749153968 98.52284749830794,5 L 98.52284749830794,36.02284749830794 C 98.52284749830794,38.26142374915397 95.76142374915398,41.02284749830794 93.52284749830794,41.02284749830794 L 5,41.02284749830794 C 2.761423749153968,41.02284749830794 0,38.26142374915397 0,36.02284749830794 L 0,5 C 0,2.761423749153968 2.761423749153968,0 5,0 z" fill="#AAE4B0" stroke="none" transform="matrix(1, 0, 0, 1, 1, 1)"/><path d="M 5,0 L 93.52284749830794,0 C 95.76142374915398,0 98.52284749830794,2.761423749153968 98.52284749830794,5 L 98.52284749830794,36.02284749830794 C 98.52284749830794,38.26142374915397 95.76142374915398,41.02284749830794 93.52284749830794,41.02284749830794 L 5,41.02284749830794 C 2.761423749153968,41.02284749830794 0,38.26142374915397 0,36.02284749830794 L 0,5 C 0,2.761423749153968 2.761423749153968,0 5,0 z" fill="none" stroke="#AAE4B0" stroke-width="2" stroke-linecap="butt" stroke-linejoin="miter" stroke-miterlimit="10" transform="matrix(1, 0, 0, 1, 1, 1)"/><g transform="matrix(1, 0, 0, 1, 11.761423749153975, 11.761423749153968)"><text x="0" y="14.625" style="font: bold 16px -apple-system, BlinkMacSystemFont, &quot;Segoe UI&quot;, &quot;Roboto&quot;, &quot;Oxygen&quot;, &quot;Ubuntu&quot;, &quot;Cantarell&quot;, &quot;Fira Sans&quot;, &quot;Droid Sans&quot;, &quot;Helvetica Neue&quot;, sans-serif" text-anchor="start" fill="#021443" stroke="none" transform="matrix(1, 0, 0, 1, 2, 0)">Router.js</text></g></g><g transform="matrix(1, 0, 0, 1, 1343.7513224813872, 513.0455124228006)"><path d="M 5,0 L 130.52284749830793,0 C 132.76142374915395,0 135.52284749830793,2.761423749153968 135.52284749830793,5 L 135.52284749830793,36.02284749830794 C 135.52284749830793,38.26142374915397 132.76142374915395,41.02284749830794 130.52284749830793,41.02284749830794 L 5,41.02284749830794 C 2.761423749153968,41.02284749830794 0,38.26142374915397 0,36.02284749830794 L 0,5 C 0,2.761423749153968 2.761423749153968,0 5,0 z" fill="#AAE4B0" stroke="none" transform="matrix(1, 0, 0, 1, 1, 1)"/><path d="M 5,0 L 130.52284749830793,0 C 132.76142374915395,0 135.52284749830793,2.761423749153968 135.52284749830793,5 L 135.52284749830793,36.02284749830794 C 135.52284749830793,38.26142374915397 132.76142374915395,41.02284749830794 130.52284749830793,41.02284749830794 L 5,41.02284749830794 C 2.761423749153968,41.02284749830794 0,38.26142374915397 0,36.02284749830794 L 0,5 C 0,2.761423749153968 2.761423749153968,0 5,0 z" fill="none" stroke="#AAE4B0" stroke-width="2" stroke-linecap="butt" stroke-linejoin="miter" stroke-miterlimit="10" transform="matrix(1, 0, 0, 1, 1, 1)"/><g transform="matrix(1, 0, 0, 1, 11.761423749153954, 11.761423749153968)"><text x="0" y="14.625" style="font: bold 16px -apple-system, BlinkMacSystemFont, &quot;Segoe UI&quot;, &quot;Roboto&quot;, &quot;Oxygen&quot;, &quot;Ubuntu&quot;, &quot;Cantarell&quot;, &quot;Fira Sans&quot;, &quot;Droid Sans&quot;, &quot;Helvetica Neue&quot;, sans-serif" text-anchor="start" fill="#021443" stroke="none" transform="matrix(1, 0, 0, 1, 2, 0)">info-circle.svg</text></g></g><g transform="matrix(1, 0, 0, 1, 1344.7513224813872, 355.0226649244926)"><path d="M 5,0 L 87.52284749830794,0 C 89.76142374915398,0 92.52284749830794,2.761423749153968 92.52284749830794,5 L 92.52284749830794,36.02284749830794 C 92.52284749830794,38.26142374915397 89.76142374915398,41.02284749830794 87.52284749830794,41.02284749830794 L 5,41.02284749830794 C 2.761423749153968,41.02284749830794 0,38.26142374915397 0,36.02284749830794 L 0,5 C 0,2.761423749153968 2.761423749153968,0 5,0 z" fill="#AAE4B0" stroke="none" transform="matrix(1, 0, 0, 1, 1, 1)"/><path d="M 5,0 L 87.52284749830794,0 C 89.76142374915398,0 92.52284749830794,2.761423749153968 92.52284749830794,5 L 92.52284749830794,36.02284749830794 C 92.52284749830794,38.26142374915397 89.76142374915398,41.02284749830794 87.52284749830794,41.02284749830794 L 5,41.02284749830794 C 2.761423749153968,41.02284749830794 0,38.26142374915397 0,36.02284749830794 L 0,5 C 0,2.761423749153968 2.761423749153968,0 5,0 z" fill="none" stroke="#AAE4B0" stroke-width="2" stroke-linecap="butt" stroke-linejoin="miter" stroke-miterlimit="10" transform="matrix(1, 0, 0, 1, 1, 1)"/><g transform="matrix(1, 0, 0, 1, 11.761423749153975, 11.761423749153968)"><text x="0" y="14.625" style="font: bold 16px -apple-system, BlinkMacSystemFont, &quot;Segoe UI&quot;, &quot;Roboto&quot;, &quot;Oxygen&quot;, &quot;Ubuntu&quot;, &quot;Cantarell&quot;, &quot;Fira Sans&quot;, &quot;Droid Sans&quot;, &quot;Helvetica Neue&quot;, sans-serif" text-anchor="start" fill="#021443" stroke="none" transform="matrix(1, 0, 0, 1, 2, 0)">info.png</text></g></g><g transform="matrix(1, 0, 0, 1, 1343.7513224813872, 430.0226649244926)"><path d="M 5,0 L 89.52284749830794,0 C 91.76142374915398,0 94.52284749830794,2.761423749153968 94.52284749830794,5 L 94.52284749830794,36.02284749830794 C 94.52284749830794,38.26142374915397 91.76142374915398,41.02284749830794 89.52284749830794,41.02284749830794 L 5,41.02284749830794 C 2.761423749153968,41.02284749830794 0,38.26142374915397 0,36.02284749830794 L 0,5 C 0,2.761423749153968 2.761423749153968,0 5,0 z" fill="#AAE4B0" stroke="none" transform="matrix(1, 0, 0, 1, 1, 1)"/><path d="M 5,0 L 89.52284749830794,0 C 91.76142374915398,0 94.52284749830794,2.761423749153968 94.52284749830794,5 L 94.52284749830794,36.02284749830794 C 94.52284749830794,38.26142374915397 91.76142374915398,41.02284749830794 89.52284749830794,41.02284749830794 L 5,41.02284749830794 C 2.761423749153968,41.02284749830794 0,38.26142374915397 0,36.02284749830794 L 0,5 C 0,2.761423749153968 2.761423749153968,0 5,0 z" fill="none" stroke="#AAE4B0" stroke-width="2" stroke-linecap="butt" stroke-linejoin="miter" stroke-miterlimit="10" transform="matrix(1, 0, 0, 1, 1, 1)"/><g transform="matrix(1, 0, 0, 1, 11.761423749153975, 11.761423749153968)"><text x="0" y="14.625" style="font: bold 16px -apple-system, BlinkMacSystemFont, &quot;Segoe UI&quot;, &quot;Roboto&quot;, &quot;Oxygen&quot;, &quot;Ubuntu&quot;, &quot;Cantarell&quot;, &quot;Fira Sans&quot;, &quot;Droid Sans&quot;, &quot;Helvetica Neue&quot;, sans-serif" text-anchor="start" fill="#021443" stroke="none" transform="matrix(1, 0, 0, 1, 2, 0)">logo.png</text></g></g><g transform="matrix(1, 0, 0, 1, 1532.2741699796952, 513.0455124228006)"><path d="M 5,0 L 171.52284749830793,0 C 173.76142374915395,0 176.52284749830793,2.761423749153968 176.52284749830793,5 L 176.52284749830793,36.02284749830794 C 176.52284749830793,38.26142374915397 173.76142374915395,41.02284749830794 171.52284749830793,41.02284749830794 L 5,41.02284749830794 C 2.761423749153968,41.02284749830794 0,38.26142374915397 0,36.02284749830794 L 0,5 C 0,2.761423749153968 2.761423749153968,0 5,0 z" fill="#AAE4B0" stroke="none" transform="matrix(1, 0, 0, 1, 1, 1)"/><path d="M 5,0 L 171.52284749830793,0 C 173.76142374915395,0 176.52284749830793,2.761423749153968 176.52284749830793,5 L 176.52284749830793,36.02284749830794 C 176.52284749830793,38.26142374915397 173.76142374915395,41.02284749830794 171.52284749830793,41.02284749830794 L 5,41.02284749830794 C 2.761423749153968,41.02284749830794 0,38.26142374915397 0,36.02284749830794 L 0,5 C 0,2.761423749153968 2.761423749153968,0 5,0 z" fill="none" stroke="#AAE4B0" stroke-width="2" stroke-linecap="butt" stroke-linejoin="miter" stroke-miterlimit="10" transform="matrix(1, 0, 0, 1, 1, 1)"/><g transform="matrix(1, 0, 0, 1, 11.761423749153954, 11.761423749153968)"><text x="0" y="14.625" style="font: bold 16px -apple-system, BlinkMacSystemFont, &quot;Segoe UI&quot;, &quot;Roboto&quot;, &quot;Oxygen&quot;, &quot;Ubuntu&quot;, &quot;Cantarell&quot;, &quot;Fira Sans&quot;, &quot;Droid Sans&quot;, &quot;Helvetica Neue&quot;, sans-serif" text-anchor="start" fill="#021443" stroke="none" transform="matrix(1, 0, 0, 1, 2, 0)">project_preview.gif</text></g></g><g transform="matrix(1, 0, 0, 1, 758.6599324881557, 420.15764601691274)"><path d="M 5,0 L 137.52284749830793,0 C 139.76142374915395,0 142.52284749830793,2.761423749153968 142.52284749830793,5 L 142.52284749830793,36.02284749830794 C 142.52284749830793,38.26142374915397 139.76142374915395,41.02284749830794 137.52284749830793,41.02284749830794 L 5,41.02284749830794 C 2.761423749153968,41.02284749830794 0,38.26142374915397 0,36.02284749830794 L 0,5 C 0,2.761423749153968 2.761423749153968,0 5,0 z" fill="#AAE4B0" stroke="none" transform="matrix(1, 0, 0, 1, 1, 1)"/><path d="M 5,0 L 137.52284749830793,0 C 139.76142374915395,0 142.52284749830793,2.761423749153968 142.52284749830793,5 L 142.52284749830793,36.02284749830794 C 142.52284749830793,38.26142374915397 139.76142374915395,41.02284749830794 137.52284749830793,41.02284749830794 L 5,41.02284749830794 C 2.761423749153968,41.02284749830794 0,38.26142374915397 0,36.02284749830794 L 0,5 C 0,2.761423749153968 2.761423749153968,0 5,0 z" fill="none" stroke="#AAE4B0" stroke-width="2" stroke-linecap="butt" stroke-linejoin="miter" stroke-miterlimit="10" transform="matrix(1, 0, 0, 1, 1, 1)"/><g transform="matrix(1, 0, 0, 1, 11.761423749153954, 11.761423749153968)"><text x="0" y="14.625" style="font: bold 16px -apple-system, BlinkMacSystemFont, &quot;Segoe UI&quot;, &quot;Roboto&quot;, &quot;Oxygen&quot;, &quot;Ubuntu&quot;, &quot;Cantarell&quot;, &quot;Fira Sans&quot;, &quot;Droid Sans&quot;, &quot;Helvetica Neue&quot;, sans-serif" text-anchor="start" fill="#021443" stroke="none" transform="matrix(1, 0, 0, 1, 2, 0)">BudgetForm.js</text></g></g><g transform="matrix(1, 0, 0, 1, 1115.7056274847716, 570.1576460169127)"><path d="M 5,0 L 124.52284749830793,0 C 126.76142374915396,0 129.52284749830793,2.761423749153968 129.52284749830793,5 L 129.52284749830793,36.02284749830794 C 129.52284749830793,38.26142374915397 126.76142374915396,41.02284749830794 124.52284749830793,41.02284749830794 L 5,41.02284749830794 C 2.761423749153968,41.02284749830794 0,38.26142374915397 0,36.02284749830794 L 0,5 C 0,2.761423749153968 2.761423749153968,0 5,0 z" fill="#AAE4B0" stroke="none" transform="matrix(1, 0, 0, 1, 1, 1)"/><path d="M 5,0 L 124.52284749830793,0 C 126.76142374915396,0 129.52284749830793,2.761423749153968 129.52284749830793,5 L 129.52284749830793,36.02284749830794 C 129.52284749830793,38.26142374915397 126.76142374915396,41.02284749830794 124.52284749830793,41.02284749830794 L 5,41.02284749830794 C 2.761423749153968,41.02284749830794 0,38.26142374915397 0,36.02284749830794 L 0,5 C 0,2.761423749153968 2.761423749153968,0 5,0 z" fill="none" stroke="#AAE4B0" stroke-width="2" stroke-linecap="butt" stroke-linejoin="miter" stroke-miterlimit="10" transform="matrix(1, 0, 0, 1, 1, 1)"/><g transform="matrix(1, 0, 0, 1, 11.76142374915396, 11.761423749153968)"><text x="0" y="14.625" style="font: bold 16px -apple-system, BlinkMacSystemFont, &quot;Segoe UI&quot;, &quot;Roboto&quot;, &quot;Oxygen&quot;, &quot;Ubuntu&quot;, &quot;Cantarell&quot;, &quot;Fira Sans&quot;, &quot;Droid Sans&quot;, &quot;Helvetica Neue&quot;, sans-serif" text-anchor="start" fill="#021443" stroke="none" transform="matrix(1, 0, 0, 1, 2, 0)">BudgetList.js</text></g></g><g transform="matrix(1, 0, 0, 1, 948.1827799864636, 420.15764601691274)"><path d="M 5,0 L 115.52284749830794,0 C 117.76142374915398,0 120.52284749830794,2.761423749153968 120.52284749830794,5 L 120.52284749830794,36.02284749830794 C 120.52284749830794,38.26142374915397 117.76142374915398,41.02284749830794 115.52284749830794,41.02284749830794 L 5,41.02284749830794 C 2.761423749153968,41.02284749830794 0,38.26142374915397 0,36.02284749830794 L 0,5 C 0,2.761423749153968 2.761423749153968,0 5,0 z" fill="#AAE4B0" stroke="none" transform="matrix(1, 0, 0, 1, 1, 1)"/><path d="M 5,0 L 115.52284749830794,0 C 117.76142374915398,0 120.52284749830794,2.761423749153968 120.52284749830794,5 L 120.52284749830794,36.02284749830794 C 120.52284749830794,38.26142374915397 117.76142374915398,41.02284749830794 115.52284749830794,41.02284749830794 L 5,41.02284749830794 C 2.761423749153968,41.02284749830794 0,38.26142374915397 0,36.02284749830794 L 0,5 C 0,2.761423749153968 2.761423749153968,0 5,0 z" fill="none" stroke="#AAE4B0" stroke-width="2" stroke-linecap="butt" stroke-linejoin="miter" stroke-miterlimit="10" transform="matrix(1, 0, 0, 1, 1, 1)"/><g transform="matrix(1, 0, 0, 1, 11.761423749153975, 11.761423749153968)"><text x="0" y="14.625" style="font: bold 16px -apple-system, BlinkMacSystemFont, &quot;Segoe UI&quot;, &quot;Roboto&quot;, &quot;Oxygen&quot;, &quot;Ubuntu&quot;, &quot;Cantarell&quot;, &quot;Fira Sans&quot;, &quot;Droid Sans&quot;, &quot;Helvetica Neue&quot;, sans-serif" text-anchor="start" fill="#021443" stroke="none" transform="matrix(1, 0, 0, 1, 2, 0)">Checkbox.js</text></g></g><g transform="matrix(1, 0, 0, 1, 1128.7056274847716, 645.1576460169127)"><path d="M 5,0 L 98.52284749830794,0 C 100.76142374915398,0 103.52284749830794,2.761423749153968 103.52284749830794,5 L 103.52284749830794,36.02284749830794 C 103.52284749830794,38.26142374915397 100.76142374915398,41.02284749830794 98.52284749830794,41.02284749830794 L 5,41.02284749830794 C 2.761423749153968,41.02284749830794 0,38.26142374915397 0,36.02284749830794 L 0,5 C 0,2.761423749153968 2.761423749153968,0 5,0 z" fill="#AAE4B0" stroke="none" transform="matrix(1, 0, 0, 1, 1, 1)"/><path d="M 5,0 L 98.52284749830794,0 C 100.76142374915398,0 103.52284749830794,2.761423749153968 103.52284749830794,5 L 103.52284749830794,36.02284749830794 C 103.52284749830794,38.26142374915397 100.76142374915398,41.02284749830794 98.52284749830794,41.02284749830794 L 5,41.02284749830794 C 2.761423749153968,41.02284749830794 0,38.26142374915397 0,36.02284749830794 L 0,5 C 0,2.761423749153968 2.761423749153968,0 5,0 z" fill="none" stroke="#AAE4B0" stroke-width="2" stroke-linecap="butt" stroke-linejoin="miter" stroke-miterlimit="10" transform="matrix(1, 0, 0, 1, 1, 1)"/><g transform="matrix(1, 0, 0, 1, 11.761423749153975, 11.761423749153968)"><text x="0" y="14.625" style="font: bold 16px -apple-system, BlinkMacSystemFont, &quot;Segoe UI&quot;, &quot;Roboto&quot;, &quot;Oxygen&quot;, &quot;Ubuntu&quot;, &quot;Cantarell&quot;, &quot;Fira Sans&quot;, &quot;Droid Sans&quot;, &quot;Helvetica Neue&quot;, sans-serif" text-anchor="start" fill="#021443" stroke="none" transform="matrix(1, 0, 0, 1, 2, 0)">NavBar.js</text></g></g><g transform="matrix(1, 0, 0, 1, 964.1827799864636, 495.15764601691274)"><path d="M 5,0 L 83.52284749830794,0 C 85.76142374915398,0 88.52284749830794,2.761423749153968 88.52284749830794,5 L 88.52284749830794,36.02284749830794 C 88.52284749830794,38.26142374915397 85.76142374915398,41.02284749830794 83.52284749830794,41.02284749830794 L 5,41.02284749830794 C 2.761423749153968,41.02284749830794 0,38.26142374915397 0,36.02284749830794 L 0,5 C 0,2.761423749153968 2.761423749153968,0 5,0 z" fill="#AAE4B0" stroke="none" transform="matrix(1, 0, 0, 1, 1, 1)"/><path d="M 5,0 L 83.52284749830794,0 C 85.76142374915398,0 88.52284749830794,2.761423749153968 88.52284749830794,5 L 88.52284749830794,36.02284749830794 C 88.52284749830794,38.26142374915397 85.76142374915398,41.02284749830794 83.52284749830794,41.02284749830794 L 5,41.02284749830794 C 2.761423749153968,41.02284749830794 0,38.26142374915397 0,36.02284749830794 L 0,5 C 0,2.761423749153968 2.761423749153968,0 5,0 z" fill="none" stroke="#AAE4B0" stroke-width="2" stroke-linecap="butt" stroke-linejoin="miter" stroke-miterlimit="10" transform="matrix(1, 0, 0, 1, 1, 1)"/><g transform="matrix(1, 0, 0, 1, 11.761423749153975, 11.761423749153968)"><text x="0" y="14.625" style="font: bold 16px -apple-system, BlinkMacSystemFont, &quot;Segoe UI&quot;, &quot;Roboto&quot;, &quot;Oxygen&quot;, &quot;Ubuntu&quot;, &quot;Cantarell&quot;, &quot;Fira Sans&quot;, &quot;Droid Sans&quot;, &quot;Helvetica Neue&quot;, sans-serif" text-anchor="start" fill="#021443" stroke="none" transform="matrix(1, 0, 0, 1, 2, 0)">Panel.js</text></g></g><g transform="matrix(1, 0, 0, 1, 1133.2056274847716, 495.15764601691274)"><path d="M 5,0 L 89.52284749830794,0 C 91.76142374915398,0 94.52284749830794,2.761423749153968 94.52284749830794,5 L 94.52284749830794,36.02284749830794 C 94.52284749830794,38.26142374915397 91.76142374915398,41.02284749830794 89.52284749830794,41.02284749830794 L 5,41.02284749830794 C 2.761423749153968,41.02284749830794 0,38.26142374915397 0,36.02284749830794 L 0,5 C 0,2.761423749153968 2.761423749153968,0 5,0 z" fill="#AAE4B0" stroke="none" transform="matrix(1, 0, 0, 1, 1, 1)"/><path d="M 5,0 L 89.52284749830794,0 C 91.76142374915398,0 94.52284749830794,2.761423749153968 94.52284749830794,5 L 94.52284749830794,36.02284749830794 C 94.52284749830794,38.26142374915397 91.76142374915398,41.02284749830794 89.52284749830794,41.02284749830794 L 5,41.02284749830794 C 2.761423749153968,41.02284749830794 0,38.26142374915397 0,36.02284749830794 L 0,5 C 0,2.761423749153968 2.761423749153968,0 5,0 z" fill="none" stroke="#AAE4B0" stroke-width="2" stroke-linecap="butt" stroke-linejoin="miter" stroke-miterlimit="10" transform="matrix(1, 0, 0, 1, 1, 1)"/><g transform="matrix(1, 0, 0, 1, 11.761423749153975, 11.761423749153968)"><text x="0" y="14.625" style="font: bold 16px -apple-system, BlinkMacSystemFont, &quot;Segoe UI&quot;, &quot;Roboto&quot;, &quot;Oxygen&quot;, &quot;Ubuntu&quot;, &quot;Cantarell&quot;, &quot;Fira Sans&quot;, &quot;Droid Sans&quot;, &quot;Helvetica Neue&quot;, sans-serif" text-anchor="start" fill="#021443" stroke="none" transform="matrix(1, 0, 0, 1, 2, 0)">Popup.js</text></g></g><g transform="matrix(1, 0, 0, 1, 1122.2056274847716, 420.15764601691274)"><path d="M 5,0 L 111.52284749830794,0 C 113.76142374915398,0 116.52284749830794,2.761423749153968 116.52284749830794,5 L 116.52284749830794,36.02284749830794 C 116.52284749830794,38.26142374915397 113.76142374915398,41.02284749830794 111.52284749830794,41.02284749830794 L 5,41.02284749830794 C 2.761423749153968,41.02284749830794 0,38.26142374915397 0,36.02284749830794 L 0,5 C 0,2.761423749153968 2.761423749153968,0 5,0 z" fill="#AAE4B0" stroke="none" transform="matrix(1, 0, 0, 1, 1, 1)"/><path d="M 5,0 L 111.52284749830794,0 C 113.76142374915398,0 116.52284749830794,2.761423749153968 116.52284749830794,5 L 116.52284749830794,36.02284749830794 C 116.52284749830794,38.26142374915397 113.76142374915398,41.02284749830794 111.52284749830794,41.02284749830794 L 5,41.02284749830794 C 2.761423749153968,41.02284749830794 0,38.26142374915397 0,36.02284749830794 L 0,5 C 0,2.761423749153968 2.761423749153968,0 5,0 z" fill="none" stroke="#AAE4B0" stroke-width="2" stroke-linecap="butt" stroke-linejoin="miter" stroke-miterlimit="10" transform="matrix(1, 0, 0, 1, 1, 1)"/><g transform="matrix(1, 0, 0, 1, 11.761423749153975, 11.761423749153968)"><text x="0" y="14.625" style="font: bold 16px -apple-system, BlinkMacSystemFont, &quot;Segoe UI&quot;, &quot;Roboto&quot;, &quot;Oxygen&quot;, &quot;Ubuntu&quot;, &quot;Cantarell&quot;, &quot;Fira Sans&quot;, &quot;Droid Sans&quot;, &quot;Helvetica Neue&quot;, sans-serif" text-anchor="start" fill="#021443" stroke="none" transform="matrix(1, 0, 0, 1, 2, 0)">Quantity.js</text></g></g><g transform="matrix(1, 0, 0, 1, 1124.7056274847716, 720.1576460169127)"><path d="M 5,0 L 106.52284749830794,0 C 108.76142374915398,0 111.52284749830794,2.761423749153968 111.52284749830794,5 L 111.52284749830794,36.02284749830794 C 111.52284749830794,38.26142374915397 108.76142374915398,41.02284749830794 106.52284749830794,41.02284749830794 L 5,41.02284749830794 C 2.761423749153968,41.02284749830794 0,38.26142374915397 0,36.02284749830794 L 0,5 C 0,2.761423749153968 2.761423749153968,0 5,0 z" fill="#AAE4B0" stroke="none" transform="matrix(1, 0, 0, 1, 1, 1)"/><path d="M 5,0 L 106.52284749830794,0 C 108.76142374915398,0 111.52284749830794,2.761423749153968 111.52284749830794,5 L 111.52284749830794,36.02284749830794 C 111.52284749830794,38.26142374915397 108.76142374915398,41.02284749830794 106.52284749830794,41.02284749830794 L 5,41.02284749830794 C 2.761423749153968,41.02284749830794 0,38.26142374915397 0,36.02284749830794 L 0,5 C 0,2.761423749153968 2.761423749153968,0 5,0 z" fill="none" stroke="#AAE4B0" stroke-width="2" stroke-linecap="butt" stroke-linejoin="miter" stroke-miterlimit="10" transform="matrix(1, 0, 0, 1, 1, 1)"/><g transform="matrix(1, 0, 0, 1, 11.761423749153975, 11.761423749153968)"><text x="0" y="14.625" style="font: bold 16px -apple-system, BlinkMacSystemFont, &quot;Segoe UI&quot;, &quot;Roboto&quot;, &quot;Oxygen&quot;, &quot;Ubuntu&quot;, &quot;Cantarell&quot;, &quot;Fira Sans&quot;, &quot;Droid Sans&quot;, &quot;Helvetica Neue&quot;, sans-serif" text-anchor="start" fill="#021443" stroke="none" transform="matrix(1, 0, 0, 1, 2, 0)">UserInfo.js</text></g></g><g transform="matrix(1, 0, 0, 1, 528.6142374915398, 371.5340886736466)"><path d="M 5,0 L 126.52284749830793,0 C 128.76142374915395,0 131.52284749830793,2.761423749153968 131.52284749830793,5 L 131.52284749830793,36.02284749830794 C 131.52284749830793,38.26142374915397 128.76142374915395,41.02284749830794 126.52284749830793,41.02284749830794 L 5,41.02284749830794 C 2.761423749153968,41.02284749830794 0,38.26142374915397 0,36.02284749830794 L 0,5 C 0,2.761423749153968 2.761423749153968,0 5,0 z" fill="#AAE4B0" stroke="none" transform="matrix(1, 0, 0, 1, 1, 1)"/><path d="M 5,0 L 126.52284749830793,0 C 128.76142374915395,0 131.52284749830793,2.761423749153968 131.52284749830793,5 L 131.52284749830793,36.02284749830794 C 131.52284749830793,38.26142374915397 128.76142374915395,41.02284749830794 126.52284749830793,41.02284749830794 L 5,41.02284749830794 C 2.761423749153968,41.02284749830794 0,38.26142374915397 0,36.02284749830794 L 0,5 C 0,2.761423749153968 2.761423749153968,0 5,0 z" fill="none" stroke="#AAE4B0" stroke-width="2" stroke-linecap="butt" stroke-linejoin="miter" stroke-miterlimit="10" transform="matrix(1, 0, 0, 1, 1, 1)"/><g transform="matrix(1, 0, 0, 1, 11.76142374915396, 11.761423749153968)"><text x="0" y="14.625" style="font: bold 16px -apple-system, BlinkMacSystemFont, &quot;Segoe UI&quot;, &quot;Roboto&quot;, &quot;Oxygen&quot;, &quot;Ubuntu&quot;, &quot;Cantarell&quot;, &quot;Fira Sans&quot;, &quot;Droid Sans&quot;, &quot;Helvetica Neue&quot;, sans-serif" text-anchor="start" fill="#021443" stroke="none" transform="matrix(1, 0, 0, 1, 2, 0)">BudgetApp.js</text></g></g><g transform="matrix(1, 0, 0, 1, 549.1142374915398, 446.5340886736466)"><path d="M 5,0 L 85.52284749830794,0 C 87.76142374915398,0 90.52284749830794,2.761423749153968 90.52284749830794,5 L 90.52284749830794,36.02284749830794 C 90.52284749830794,38.26142374915397 87.76142374915398,41.02284749830794 85.52284749830794,41.02284749830794 L 5,41.02284749830794 C 2.761423749153968,41.02284749830794 0,38.26142374915397 0,36.02284749830794 L 0,5 C 0,2.761423749153968 2.761423749153968,0 5,0 z" fill="#AAE4B0" stroke="none" transform="matrix(1, 0, 0, 1, 1, 1)"/><path d="M 5,0 L 85.52284749830794,0 C 87.76142374915398,0 90.52284749830794,2.761423749153968 90.52284749830794,5 L 90.52284749830794,36.02284749830794 C 90.52284749830794,38.26142374915397 87.76142374915398,41.02284749830794 85.52284749830794,41.02284749830794 L 5,41.02284749830794 C 2.761423749153968,41.02284749830794 0,38.26142374915397 0,36.02284749830794 L 0,5 C 0,2.761423749153968 2.761423749153968,0 5,0 z" fill="none" stroke="#AAE4B0" stroke-width="2" stroke-linecap="butt" stroke-linejoin="miter" stroke-miterlimit="10" transform="matrix(1, 0, 0, 1, 1, 1)"/><g transform="matrix(1, 0, 0, 1, 11.761423749153975, 11.761423749153968)"><text x="0" y="14.625" style="font: bold 16px -apple-system, BlinkMacSystemFont, &quot;Segoe UI&quot;, &quot;Roboto&quot;, &quot;Oxygen&quot;, &quot;Ubuntu&quot;, &quot;Cantarell&quot;, &quot;Fira Sans&quot;, &quot;Droid Sans&quot;, &quot;Helvetica Neue&quot;, sans-serif" text-anchor="start" fill="#021443" stroke="none" transform="matrix(1, 0, 0, 1, 2, 0)">Home.js</text></g></g><g transform="matrix(1, 0, 0, 1, 1455.012746230541, 696.5340886736466)"><path d="M 5,0 L 137.52284749830793,0 C 139.76142374915395,0 142.52284749830793,2.761423749153968 142.52284749830793,5 L 142.52284749830793,36.02284749830794 C 142.52284749830793,38.26142374915397 139.76142374915395,41.02284749830794 137.52284749830793,41.02284749830794 L 5,41.02284749830794 C 2.761423749153968,41.02284749830794 0,38.26142374915397 0,36.02284749830794 L 0,5 C 0,2.761423749153968 2.761423749153968,0 5,0 z" fill="#AAE4B0" stroke="none" transform="matrix(1, 0, 0, 1, 1, 1)"/><path d="M 5,0 L 137.52284749830793,0 C 139.76142374915395,0 142.52284749830793,2.761423749153968 142.52284749830793,5 L 142.52284749830793,36.02284749830794 C 142.52284749830793,38.26142374915397 139.76142374915395,41.02284749830794 137.52284749830793,41.02284749830794 L 5,41.02284749830794 C 2.761423749153968,41.02284749830794 0,38.26142374915397 0,36.02284749830794 L 0,5 C 0,2.761423749153968 2.761423749153968,0 5,0 z" fill="none" stroke="#AAE4B0" stroke-width="2" stroke-linecap="butt" stroke-linejoin="miter" stroke-miterlimit="10" transform="matrix(1, 0, 0, 1, 1, 1)"/><g transform="matrix(1, 0, 0, 1, 11.761423749153954, 11.761423749153968)"><text x="0" y="14.625" style="font: bold 16px -apple-system, BlinkMacSystemFont, &quot;Segoe UI&quot;, &quot;Roboto&quot;, &quot;Oxygen&quot;, &quot;Ubuntu&quot;, &quot;Cantarell&quot;, &quot;Fira Sans&quot;, &quot;Droid Sans&quot;, &quot;Helvetica Neue&quot;, sans-serif" text-anchor="start" fill="#021443" stroke="none" transform="matrix(1, 0, 0, 1, 2, 0)">BudgetApp.css</text></g></g><g transform="matrix(1, 0, 0, 1, 1456.012746230541, 771.5340886736466)"><path d="M 5,0 L 135.52284749830793,0 C 137.76142374915395,0 140.52284749830793,2.761423749153968 140.52284749830793,5 L 140.52284749830793,36.02284749830794 C 140.52284749830793,38.26142374915397 137.76142374915395,41.02284749830794 135.52284749830793,41.02284749830794 L 5,41.02284749830794 C 2.761423749153968,41.02284749830794 0,38.26142374915397 0,36.02284749830794 L 0,5 C 0,2.761423749153968 2.761423749153968,0 5,0 z" fill="#AAE4B0" stroke="none" transform="matrix(1, 0, 0, 1, 1, 1)"/><path d="M 5,0 L 135.52284749830793,0 C 137.76142374915395,0 140.52284749830793,2.761423749153968 140.52284749830793,5 L 140.52284749830793,36.02284749830794 C 140.52284749830793,38.26142374915397 137.76142374915395,41.02284749830794 135.52284749830793,41.02284749830794 L 5,41.02284749830794 C 2.761423749153968,41.02284749830794 0,38.26142374915397 0,36.02284749830794 L 0,5 C 0,2.761423749153968 2.761423749153968,0 5,0 z" fill="none" stroke="#AAE4B0" stroke-width="2" stroke-linecap="butt" stroke-linejoin="miter" stroke-miterlimit="10" transform="matrix(1, 0, 0, 1, 1, 1)"/><g transform="matrix(1, 0, 0, 1, 11.761423749153954, 11.761423749153968)"><text x="0" y="14.625" style="font: bold 16px -apple-system, BlinkMacSystemFont, &quot;Segoe UI&quot;, &quot;Roboto&quot;, &quot;Oxygen&quot;, &quot;Ubuntu&quot;, &quot;Cantarell&quot;, &quot;Fira Sans&quot;, &quot;Droid Sans&quot;, &quot;Helvetica Neue&quot;, sans-serif" text-anchor="start" fill="#021443" stroke="none" transform="matrix(1, 0, 0, 1, 2, 0)">BudgetList.css</text></g></g><g transform="matrix(1, 0, 0, 1, 1475.512746230541, 846.5340886736467)"><path d="M 5,0 L 96.52284749830794,0 C 98.76142374915398,0 101.52284749830794,2.761423749153968 101.52284749830794,5 L 101.52284749830794,36.02284749830794 C 101.52284749830794,38.26142374915397 98.76142374915398,41.02284749830794 96.52284749830794,41.02284749830794 L 5,41.02284749830794 C 2.761423749153968,41.02284749830794 0,38.26142374915397 0,36.02284749830794 L 0,5 C 0,2.761423749153968 2.761423749153968,0 5,0 z" fill="#AAE4B0" stroke="none" transform="matrix(1, 0, 0, 1, 1, 1)"/><path d="M 5,0 L 96.52284749830794,0 C 98.76142374915398,0 101.52284749830794,2.761423749153968 101.52284749830794,5 L 101.52284749830794,36.02284749830794 C 101.52284749830794,38.26142374915397 98.76142374915398,41.02284749830794 96.52284749830794,41.02284749830794 L 5,41.02284749830794 C 2.761423749153968,41.02284749830794 0,38.26142374915397 0,36.02284749830794 L 0,5 C 0,2.761423749153968 2.761423749153968,0 5,0 z" fill="none" stroke="#AAE4B0" stroke-width="2" stroke-linecap="butt" stroke-linejoin="miter" stroke-miterlimit="10" transform="matrix(1, 0, 0, 1, 1, 1)"/><g transform="matrix(1, 0, 0, 1, 11.761423749153975, 11.761423749153968)"><text x="0" y="14.625" style="font: bold 16px -apple-system, BlinkMacSystemFont, &quot;Segoe UI&quot;, &quot;Roboto&quot;, &quot;Oxygen&quot;, &quot;Ubuntu&quot;, &quot;Cantarell&quot;, &quot;Fira Sans&quot;, &quot;Droid Sans&quot;, &quot;Helvetica Neue&quot;, sans-serif" text-anchor="start" fill="#021443" stroke="none" transform="matrix(1, 0, 0, 1, 2, 0)">Home.css</text></g></g><g transform="matrix(1, 0, 0, 1, 1469.012746230541, 921.5340886736467)"><path d="M 5,0 L 109.52284749830794,0 C 111.76142374915398,0 114.52284749830794,2.761423749153968 114.52284749830794,5 L 114.52284749830794,36.02284749830794 C 114.52284749830794,38.26142374915397 111.76142374915398,41.02284749830794 109.52284749830794,41.02284749830794 L 5,41.02284749830794 C 2.761423749153968,41.02284749830794 0,38.26142374915397 0,36.02284749830794 L 0,5 C 0,2.761423749153968 2.761423749153968,0 5,0 z" fill="#AAE4B0" stroke="none" transform="matrix(1, 0, 0, 1, 1, 1)"/><path d="M 5,0 L 109.52284749830794,0 C 111.76142374915398,0 114.52284749830794,2.761423749153968 114.52284749830794,5 L 114.52284749830794,36.02284749830794 C 114.52284749830794,38.26142374915397 111.76142374915398,41.02284749830794 109.52284749830794,41.02284749830794 L 5,41.02284749830794 C 2.761423749153968,41.02284749830794 0,38.26142374915397 0,36.02284749830794 L 0,5 C 0,2.761423749153968 2.761423749153968,0 5,0 z" fill="none" stroke="#AAE4B0" stroke-width="2" stroke-linecap="butt" stroke-linejoin="miter" stroke-miterlimit="10" transform="matrix(1, 0, 0, 1, 1, 1)"/><g transform="matrix(1, 0, 0, 1, 11.761423749153975, 11.761423749153968)"><text x="0" y="14.625" style="font: bold 16px -apple-system, BlinkMacSystemFont, &quot;Segoe UI&quot;, &quot;Roboto&quot;, &quot;Oxygen&quot;, &quot;Ubuntu&quot;, &quot;Cantarell&quot;, &quot;Fira Sans&quot;, &quot;Droid Sans&quot;, &quot;Helvetica Neue&quot;, sans-serif" text-anchor="start" fill="#021443" stroke="none" transform="matrix(1, 0, 0, 1, 2, 0)">NavBar.css</text></g></g><g transform="matrix(1, 0, 0, 1, 1473.512746230541, 996.5340886736467)"><path d="M 5,0 L 100.52284749830794,0 C 102.76142374915398,0 105.52284749830794,2.761423749153968 105.52284749830794,5 L 105.52284749830794,36.02284749830794 C 105.52284749830794,38.26142374915397 102.76142374915398,41.02284749830794 100.52284749830794,41.02284749830794 L 5,41.02284749830794 C 2.761423749153968,41.02284749830794 0,38.26142374915397 0,36.02284749830794 L 0,5 C 0,2.761423749153968 2.761423749153968,0 5,0 z" fill="#AAE4B0" stroke="none" transform="matrix(1, 0, 0, 1, 1, 1)"/><path d="M 5,0 L 100.52284749830794,0 C 102.76142374915398,0 105.52284749830794,2.761423749153968 105.52284749830794,5 L 105.52284749830794,36.02284749830794 C 105.52284749830794,38.26142374915397 102.76142374915398,41.02284749830794 100.52284749830794,41.02284749830794 L 5,41.02284749830794 C 2.761423749153968,41.02284749830794 0,38.26142374915397 0,36.02284749830794 L 0,5 C 0,2.761423749153968 2.761423749153968,0 5,0 z" fill="none" stroke="#AAE4B0" stroke-width="2" stroke-linecap="butt" stroke-linejoin="miter" stroke-miterlimit="10" transform="matrix(1, 0, 0, 1, 1, 1)"/><g transform="matrix(1, 0, 0, 1, 11.761423749153975, 11.761423749153968)"><text x="0" y="14.625" style="font: bold 16px -apple-system, BlinkMacSystemFont, &quot;Segoe UI&quot;, &quot;Roboto&quot;, &quot;Oxygen&quot;, &quot;Ubuntu&quot;, &quot;Cantarell&quot;, &quot;Fira Sans&quot;, &quot;Droid Sans&quot;, &quot;Helvetica Neue&quot;, sans-serif" text-anchor="start" fill="#021443" stroke="none" transform="matrix(1, 0, 0, 1, 2, 0)">Popup.css</text></g></g><g transform="matrix(1, 0, 0, 1, 1465.012746230541, 1071.5340886736467)"><path d="M 5,0 L 117.52284749830794,0 C 119.76142374915398,0 122.52284749830794,2.761423749153968 122.52284749830794,5 L 122.52284749830794,36.02284749830794 C 122.52284749830794,38.26142374915397 119.76142374915398,41.02284749830794 117.52284749830794,41.02284749830794 L 5,41.02284749830794 C 2.761423749153968,41.02284749830794 0,38.26142374915397 0,36.02284749830794 L 0,5 C 0,2.761423749153968 2.761423749153968,0 5,0 z" fill="#AAE4B0" stroke="none" transform="matrix(1, 0, 0, 1, 1, 1)"/><path d="M 5,0 L 117.52284749830794,0 C 119.76142374915398,0 122.52284749830794,2.761423749153968 122.52284749830794,5 L 122.52284749830794,36.02284749830794 C 122.52284749830794,38.26142374915397 119.76142374915398,41.02284749830794 117.52284749830794,41.02284749830794 L 5,41.02284749830794 C 2.761423749153968,41.02284749830794 0,38.26142374915397 0,36.02284749830794 L 0,5 C 0,2.761423749153968 2.761423749153968,0 5,0 z" fill="none" stroke="#AAE4B0" stroke-width="2" stroke-linecap="butt" stroke-linejoin="miter" stroke-miterlimit="10" transform="matrix(1, 0, 0, 1, 1, 1)"/><g transform="matrix(1, 0, 0, 1, 11.761423749153975, 11.761423749153968)"><text x="0" y="14.625" style="font: bold 16px -apple-system, BlinkMacSystemFont, &quot;Segoe UI&quot;, &quot;Roboto&quot;, &quot;Oxygen&quot;, &quot;Ubuntu&quot;, &quot;Cantarell&quot;, &quot;Fira Sans&quot;, &quot;Droid Sans&quot;, &quot;Helvetica Neue&quot;, sans-serif" text-anchor="start" fill="#021443" stroke="none" transform="matrix(1, 0, 0, 1, 2, 0)">UserInfo.css</text></g></g><g transform="matrix(1, 0, 0, 1, 361.04569499661585, 1289.1026311685705)"><path d="M 5,0 L 118.52284749830794,0 C 120.76142374915398,0 123.52284749830794,2.761423749153968 123.52284749830794,5 L 123.52284749830794,36.02284749830794 C 123.52284749830794,38.26142374915397 120.76142374915398,41.02284749830794 118.52284749830794,41.02284749830794 L 5,41.02284749830794 C 2.761423749153968,41.02284749830794 0,38.26142374915397 0,36.02284749830794 L 0,5 C 0,2.761423749153968 2.761423749153968,0 5,0 z" fill="#FFCD82" stroke="none" transform="matrix(1, 0, 0, 1, 1, 1)"/><path d="M 5,0 L 118.52284749830794,0 C 120.76142374915398,0 123.52284749830794,2.761423749153968 123.52284749830794,5 L 123.52284749830794,36.02284749830794 C 123.52284749830794,38.26142374915397 120.76142374915398,41.02284749830794 118.52284749830794,41.02284749830794 L 5,41.02284749830794 C 2.761423749153968,41.02284749830794 0,38.26142374915397 0,36.02284749830794 L 0,5 C 0,2.761423749153968 2.761423749153968,0 5,0 z" fill="none" stroke="#FFCD82" stroke-width="2" stroke-linecap="butt" stroke-linejoin="miter" stroke-miterlimit="10" transform="matrix(1, 0, 0, 1, 1, 1)"/><g transform="matrix(1, 0, 0, 1, 11.761423749153975, 11.761423749153968)"><text x="0" y="14.625" style="font: bold 16px -apple-system, BlinkMacSystemFont, &quot;Segoe UI&quot;, &quot;Roboto&quot;, &quot;Oxygen&quot;, &quot;Ubuntu&quot;, &quot;Cantarell&quot;, &quot;Fira Sans&quot;, &quot;Droid Sans&quot;, &quot;Helvetica Neue&quot;, sans-serif" text-anchor="start" fill="#021443" stroke="none" transform="matrix(1, 0, 0, 1, 2, 0)">README.md</text></g></g><g transform="matrix(1, 0, 0, 1, 1.7763568394002505e-15, 1289.1026311685705)"><path d="M 5,0 L 163.52284749830793,0 C 165.76142374915395,0 168.52284749830793,2.761423749153968 168.52284749830793,5 L 168.52284749830793,36.02284749830794 C 168.52284749830793,38.26142374915397 165.76142374915395,41.02284749830794 163.52284749830793,41.02284749830794 L 5,41.02284749830794 C 2.761423749153968,41.02284749830794 0,38.26142374915397 0,36.02284749830794 L 0,5 C 0,2.761423749153968 2.761423749153968,0 5,0 z" fill="#FFCD82" stroke="none" transform="matrix(1, 0, 0, 1, 1, 1)"/><path d="M 5,0 L 163.52284749830793,0 C 165.76142374915395,0 168.52284749830793,2.761423749153968 168.52284749830793,5 L 168.52284749830793,36.02284749830794 C 168.52284749830793,38.26142374915397 165.76142374915395,41.02284749830794 163.52284749830793,41.02284749830794 L 5,41.02284749830794 C 2.761423749153968,41.02284749830794 0,38.26142374915397 0,36.02284749830794 L 0,5 C 0,2.761423749153968 2.761423749153968,0 5,0 z" fill="none" stroke="#FFCD82" stroke-width="2" stroke-linecap="butt" stroke-linejoin="miter" stroke-miterlimit="10" transform="matrix(1, 0, 0, 1, 1, 1)"/><g transform="matrix(1, 0, 0, 1, 11.761423749153954, 11.761423749153968)"><text x="0" y="14.625" style="font: bold 16px -apple-system, BlinkMacSystemFont, &quot;Segoe UI&quot;, &quot;Roboto&quot;, &quot;Oxygen&quot;, &quot;Ubuntu&quot;, &quot;Cantarell&quot;, &quot;Fira Sans&quot;, &quot;Droid Sans&quot;, &quot;Helvetica Neue&quot;, sans-serif" text-anchor="start" fill="#021443" stroke="none" transform="matrix(1, 0, 0, 1, 2, 0)">package-lock.json</text></g></g><g transform="matrix(1, 0, 0, 1, 180.52284749830793, 1289.1026311685705)"><path d="M 5,0 L 125.52284749830793,0 C 127.76142374915396,0 130.52284749830793,2.761423749153968 130.52284749830793,5 L 130.52284749830793,36.02284749830794 C 130.52284749830793,38.26142374915397 127.76142374915396,41.02284749830794 125.52284749830793,41.02284749830794 L 5,41.02284749830794 C 2.761423749153968,41.02284749830794 0,38.26142374915397 0,36.02284749830794 L 0,5 C 0,2.761423749153968 2.761423749153968,0 5,0 z" fill="#FFCD82" stroke="none" transform="matrix(1, 0, 0, 1, 1, 1)"/><path d="M 5,0 L 125.52284749830793,0 C 127.76142374915396,0 130.52284749830793,2.761423749153968 130.52284749830793,5 L 130.52284749830793,36.02284749830794 C 130.52284749830793,38.26142374915397 127.76142374915396,41.02284749830794 125.52284749830793,41.02284749830794 L 5,41.02284749830794 C 2.761423749153968,41.02284749830794 0,38.26142374915397 0,36.02284749830794 L 0,5 C 0,2.761423749153968 2.761423749153968,0 5,0 z" fill="none" stroke="#FFCD82" stroke-width="2" stroke-linecap="butt" stroke-linejoin="miter" stroke-miterlimit="10" transform="matrix(1, 0, 0, 1, 1, 1)"/><g transform="matrix(1, 0, 0, 1, 11.76142374915396, 11.761423749153968)"><text x="0" y="14.625" style="font: bold 16px -apple-system, BlinkMacSystemFont, &quot;Segoe UI&quot;, &quot;Roboto&quot;, &quot;Oxygen&quot;, &quot;Ubuntu&quot;, &quot;Cantarell&quot;, &quot;Fira Sans&quot;, &quot;Droid Sans&quot;, &quot;Helvetica Neue&quot;, sans-serif" text-anchor="start" fill="#021443" stroke="none" transform="matrix(1, 0, 0, 1, 2, 0)">package.json</text></g></g><g transform="matrix(1, 0, 0, 1, 25.761423749153998, 59.761423749153955)"><path d="M 5,0 L 108.52284749830794,0 C 110.76142374915398,0 113.52284749830794,2.761423749153968 113.52284749830794,5 L 113.52284749830794,36.02284749830794 C 113.52284749830794,38.26142374915397 110.76142374915398,41.02284749830794 108.52284749830794,41.02284749830794 L 5,41.02284749830794 C 2.761423749153968,41.02284749830794 0,38.26142374915397 0,36.02284749830794 L 0,5 C 0,2.761423749153968 2.761423749153968,0 5,0 z" fill="#FFCD82" stroke="none" transform="matrix(1, 0, 0, 1, 1, 1)"/><path d="M 5,0 L 108.52284749830794,0 C 110.76142374915398,0 113.52284749830794,2.761423749153968 113.52284749830794,5 L 113.52284749830794,36.02284749830794 C 113.52284749830794,38.26142374915397 110.76142374915398,41.02284749830794 108.52284749830794,41.02284749830794 L 5,41.02284749830794 C 2.761423749153968,41.02284749830794 0,38.26142374915397 0,36.02284749830794 L 0,5 C 0,2.761423749153968 2.761423749153968,0 5,0 z" fill="none" stroke="#FFCD82" stroke-width="2" stroke-linecap="butt" stroke-linejoin="miter" stroke-miterlimit="10" transform="matrix(1, 0, 0, 1, 1, 1)"/><g transform="matrix(1, 0, 0, 1, 11.761423749153975, 11.761423749153968)"><text x="0" y="14.625" style="font: bold 16px -apple-system, BlinkMacSystemFont, &quot;Segoe UI&quot;, &quot;Roboto&quot;, &quot;Oxygen&quot;, &quot;Ubuntu&quot;, &quot;Cantarell&quot;, &quot;Fira Sans&quot;, &quot;Droid Sans&quot;, &quot;Helvetica Neue&quot;, sans-serif" text-anchor="start" fill="#021443" stroke="none" transform="matrix(1, 0, 0, 1, 2, 0)">index.html</text></g></g><g transform="matrix(1, 0, 0, 1, 172.28427124746187, 367.0340886736466)"><path d="M 5,0 L 69.52284749830794,0 C 71.76142374915398,0 74.52284749830794,2.761423749153968 74.52284749830794,5 L 74.52284749830794,36.02284749830794 C 74.52284749830794,38.26142374915397 71.76142374915398,41.02284749830794 69.52284749830794,41.02284749830794 L 5,41.02284749830794 C 2.761423749153968,41.02284749830794 0,38.26142374915397 0,36.02284749830794 L 0,5 C 0,2.761423749153968 2.761423749153968,0 5,0 z" fill="#FFCD82" stroke="none" transform="matrix(1, 0, 0, 1, 1, 1)"/><path d="M 5,0 L 69.52284749830794,0 C 71.76142374915398,0 74.52284749830794,2.761423749153968 74.52284749830794,5 L 74.52284749830794,36.02284749830794 C 74.52284749830794,38.26142374915397 71.76142374915398,41.02284749830794 69.52284749830794,41.02284749830794 L 5,41.02284749830794 C 2.761423749153968,41.02284749830794 0,38.26142374915397 0,36.02284749830794 L 0,5 C 0,2.761423749153968 2.761423749153968,0 5,0 z" fill="none" stroke="#FFCD82" stroke-width="2" stroke-linecap="butt" stroke-linejoin="miter" stroke-miterlimit="10" transform="matrix(1, 0, 0, 1, 1, 1)"/><g transform="matrix(1, 0, 0, 1, 11.761423749153975, 11.761423749153968)"><text x="0" y="14.625" style="font: bold 16px -apple-system, BlinkMacSystemFont, &quot;Segoe UI&quot;, &quot;Roboto&quot;, &quot;Oxygen&quot;, &quot;Ubuntu&quot;, &quot;Cantarell&quot;, &quot;Fira Sans&quot;, &quot;Droid Sans&quot;, &quot;Helvetica Neue&quot;, sans-serif" text-anchor="start" fill="#021443" stroke="none" transform="matrix(1, 0, 0, 1, 2, 0)">App.js</text></g></g><g transform="matrix(1, 0, 0, 1, 160.28427124746187, 292.0340886736466)"><path d="M 5,0 L 93.52284749830794,0 C 95.76142374915398,0 98.52284749830794,2.761423749153968 98.52284749830794,5 L 98.52284749830794,36.02284749830794 C 98.52284749830794,38.26142374915397 95.76142374915398,41.02284749830794 93.52284749830794,41.02284749830794 L 5,41.02284749830794 C 2.761423749153968,41.02284749830794 0,38.26142374915397 0,36.02284749830794 L 0,5 C 0,2.761423749153968 2.761423749153968,0 5,0 z" fill="#FFCD82" stroke="none" transform="matrix(1, 0, 0, 1, 1, 1)"/><path d="M 5,0 L 93.52284749830794,0 C 95.76142374915398,0 98.52284749830794,2.761423749153968 98.52284749830794,5 L 98.52284749830794,36.02284749830794 C 98.52284749830794,38.26142374915397 95.76142374915398,41.02284749830794 93.52284749830794,41.02284749830794 L 5,41.02284749830794 C 2.761423749153968,41.02284749830794 0,38.26142374915397 0,36.02284749830794 L 0,5 C 0,2.761423749153968 2.761423749153968,0 5,0 z" fill="none" stroke="#FFCD82" stroke-width="2" stroke-linecap="butt" stroke-linejoin="miter" stroke-miterlimit="10" transform="matrix(1, 0, 0, 1, 1, 1)"/><g transform="matrix(1, 0, 0, 1, 11.761423749153975, 11.761423749153968)"><text x="0" y="14.625" style="font: bold 16px -apple-system, BlinkMacSystemFont, &quot;Segoe UI&quot;, &quot;Roboto&quot;, &quot;Oxygen&quot;, &quot;Ubuntu&quot;, &quot;Cantarell&quot;, &quot;Fira Sans&quot;, &quot;Droid Sans&quot;, &quot;Helvetica Neue&quot;, sans-serif" text-anchor="start" fill="#021443" stroke="none" transform="matrix(1, 0, 0, 1, 2, 0)">index.css</text></g></g><g transform="matrix(1, 0, 0, 1, 25.761423749154083, 292.0340886736466)"><path d="M 5,0 L 82.52284749830794,0 C 84.76142374915398,0 87.52284749830794,2.761423749153968 87.52284749830794,5 L 87.52284749830794,36.02284749830794 C 87.52284749830794,38.26142374915397 84.76142374915398,41.02284749830794 82.52284749830794,41.02284749830794 L 5,41.02284749830794 C 2.761423749153968,41.02284749830794 0,38.26142374915397 0,36.02284749830794 L 0,5 C 0,2.761423749153968 2.761423749153968,0 5,0 z" fill="#FFCD82" stroke="none" transform="matrix(1, 0, 0, 1, 1, 1)"/><path d="M 5,0 L 82.52284749830794,0 C 84.76142374915398,0 87.52284749830794,2.761423749153968 87.52284749830794,5 L 87.52284749830794,36.02284749830794 C 87.52284749830794,38.26142374915397 84.76142374915398,41.02284749830794 82.52284749830794,41.02284749830794 L 5,41.02284749830794 C 2.761423749153968,41.02284749830794 0,38.26142374915397 0,36.02284749830794 L 0,5 C 0,2.761423749153968 2.761423749153968,0 5,0 z" fill="none" stroke="#FFCD82" stroke-width="2" stroke-linecap="butt" stroke-linejoin="miter" stroke-miterlimit="10" transform="matrix(1, 0, 0, 1, 1, 1)"/><g transform="matrix(1, 0, 0, 1, 11.761423749153975, 11.761423749153968)"><text x="0" y="14.625" style="font: bold 16px -apple-system, BlinkMacSystemFont, &quot;Segoe UI&quot;, &quot;Roboto&quot;, &quot;Oxygen&quot;, &quot;Ubuntu&quot;, &quot;Cantarell&quot;, &quot;Fira Sans&quot;, &quot;Droid Sans&quot;, &quot;Helvetica Neue&quot;, sans-serif" text-anchor="start" fill="#021443" stroke="none" transform="matrix(1, 0, 0, 1, 2, 0)">index.js</text></g></g><g transform="matrix(1, 0, 0, 1, 174.28427124746193, 59.761423749153955)"><path d="M 5,0 L 116.52284749830794,0 C 118.76142374915398,0 121.52284749830794,2.761423749153968 121.52284749830794,5 L 121.52284749830794,36.02284749830794 C 121.52284749830794,38.26142374915397 118.76142374915398,41.02284749830794 116.52284749830794,41.02284749830794 L 5,41.02284749830794 C 2.761423749153968,41.02284749830794 0,38.26142374915397 0,36.02284749830794 L 0,5 C 0,2.761423749153968 2.761423749153968,0 5,0 z" fill="#FF98C3" stroke="none" transform="matrix(1, 0, 0, 1, 1, 1)"/><path d="M 5,0 L 116.52284749830794,0 C 118.76142374915398,0 121.52284749830794,2.761423749153968 121.52284749830794,5 L 121.52284749830794,36.02284749830794 C 121.52284749830794,38.26142374915397 118.76142374915398,41.02284749830794 116.52284749830794,41.02284749830794 L 5,41.02284749830794 C 2.761423749153968,41.02284749830794 0,38.26142374915397 0,36.02284749830794 L 0,5 C 0,2.761423749153968 2.761423749153968,0 5,0 z" fill="none" stroke="#FF98C3" stroke-width="2" stroke-linecap="butt" stroke-linejoin="miter" stroke-miterlimit="10" transform="matrix(1, 0, 0, 1, 1, 1)"/><g transform="matrix(1, 0, 0, 1, 11.761423749153975, 11.761423749153968)"><text x="0" y="14.625" style="font: bold 16px -apple-system, BlinkMacSystemFont, &quot;Segoe UI&quot;, &quot;Roboto&quot;, &quot;Oxygen&quot;, &quot;Ubuntu&quot;, &quot;Cantarell&quot;, &quot;Fira Sans&quot;, &quot;Droid Sans&quot;, &quot;Helvetica Neue&quot;, sans-serif" text-anchor="start" fill="#021443" stroke="none" transform="matrix(1, 0, 0, 1, 2, 0)">logo192.png</text></g></g><g transform="matrix(1, 0, 0, 1, 322.80711874576986, 59.761423749153955)"><path d="M 5,0 L 116.52284749830794,0 C 118.76142374915398,0 121.52284749830794,2.761423749153968 121.52284749830794,5 L 121.52284749830794,36.02284749830794 C 121.52284749830794,38.26142374915397 118.76142374915398,41.02284749830794 116.52284749830794,41.02284749830794 L 5,41.02284749830794 C 2.761423749153968,41.02284749830794 0,38.26142374915397 0,36.02284749830794 L 0,5 C 0,2.761423749153968 2.761423749153968,0 5,0 z" fill="#FF98C3" stroke="none" transform="matrix(1, 0, 0, 1, 1, 1)"/><path d="M 5,0 L 116.52284749830794,0 C 118.76142374915398,0 121.52284749830794,2.761423749153968 121.52284749830794,5 L 121.52284749830794,36.02284749830794 C 121.52284749830794,38.26142374915397 118.76142374915398,41.02284749830794 116.52284749830794,41.02284749830794 L 5,41.02284749830794 C 2.761423749153968,41.02284749830794 0,38.26142374915397 0,36.02284749830794 L 0,5 C 0,2.761423749153968 2.761423749153968,0 5,0 z" fill="none" stroke="#FF98C3" stroke-width="2" stroke-linecap="butt" stroke-linejoin="miter" stroke-miterlimit="10" transform="matrix(1, 0, 0, 1, 1, 1)"/><g transform="matrix(1, 0, 0, 1, 11.761423749153975, 11.761423749153968)"><text x="0" y="14.625" style="font: bold 16px -apple-system, BlinkMacSystemFont, &quot;Segoe UI&quot;, &quot;Roboto&quot;, &quot;Oxygen&quot;, &quot;Ubuntu&quot;, &quot;Cantarell&quot;, &quot;Fira Sans&quot;, &quot;Droid Sans&quot;, &quot;Helvetica Neue&quot;, sans-serif" text-anchor="start" fill="#021443" stroke="none" transform="matrix(1, 0, 0, 1, 2, 0)">logo512.png</text></g></g><g transform="matrix(1, 0, 0, 1, 25.761423749153998, 112.7842712474619)"><path d="M 5,0 L 131.52284749830793,0 C 133.76142374915395,0 136.52284749830793,2.761423749153968 136.52284749830793,5 L 136.52284749830793,36.02284749830794 C 136.52284749830793,38.26142374915397 133.76142374915395,41.02284749830794 131.52284749830793,41.02284749830794 L 5,41.02284749830794 C 2.761423749153968,41.02284749830794 0,38.26142374915397 0,36.02284749830794 L 0,5 C 0,2.761423749153968 2.761423749153968,0 5,0 z" fill="#FF98C3" stroke="none" transform="matrix(1, 0, 0, 1, 1, 1)"/><path d="M 5,0 L 131.52284749830793,0 C 133.76142374915395,0 136.52284749830793,2.761423749153968 136.52284749830793,5 L 136.52284749830793,36.02284749830794 C 136.52284749830793,38.26142374915397 133.76142374915395,41.02284749830794 131.52284749830793,41.02284749830794 L 5,41.02284749830794 C 2.761423749153968,41.02284749830794 0,38.26142374915397 0,36.02284749830794 L 0,5 C 0,2.761423749153968 2.761423749153968,0 5,0 z" fill="none" stroke="#FF98C3" stroke-width="2" stroke-linecap="butt" stroke-linejoin="miter" stroke-miterlimit="10" transform="matrix(1, 0, 0, 1, 1, 1)"/><g transform="matrix(1, 0, 0, 1, 11.761423749153954, 11.761423749153968)"><text x="0" y="14.625" style="font: bold 16px -apple-system, BlinkMacSystemFont, &quot;Segoe UI&quot;, &quot;Roboto&quot;, &quot;Oxygen&quot;, &quot;Ubuntu&quot;, &quot;Cantarell&quot;, &quot;Fira Sans&quot;, &quot;Droid Sans&quot;, &quot;Helvetica Neue&quot;, sans-serif" text-anchor="start" fill="#021443" stroke="none" transform="matrix(1, 0, 0, 1, 2, 0)">manifest.json</text></g></g><g transform="matrix(1, 0, 0, 1, 174.28427124746193, 112.7842712474619)"><path d="M 5,0 L 100.52284749830794,0 C 102.76142374915398,0 105.52284749830794,2.761423749153968 105.52284749830794,5 L 105.52284749830794,36.02284749830794 C 105.52284749830794,38.26142374915397 102.76142374915398,41.02284749830794 100.52284749830794,41.02284749830794 L 5,41.02284749830794 C 2.761423749153968,41.02284749830794 0,38.26142374915397 0,36.02284749830794 L 0,5 C 0,2.761423749153968 2.761423749153968,0 5,0 z" fill="#FF98C3" stroke="none" transform="matrix(1, 0, 0, 1, 1, 1)"/><path d="M 5,0 L 100.52284749830794,0 C 102.76142374915398,0 105.52284749830794,2.761423749153968 105.52284749830794,5 L 105.52284749830794,36.02284749830794 C 105.52284749830794,38.26142374915397 102.76142374915398,41.02284749830794 100.52284749830794,41.02284749830794 L 5,41.02284749830794 C 2.761423749153968,41.02284749830794 0,38.26142374915397 0,36.02284749830794 L 0,5 C 0,2.761423749153968 2.761423749153968,0 5,0 z" fill="none" stroke="#FF98C3" stroke-width="2" stroke-linecap="butt" stroke-linejoin="miter" stroke-miterlimit="10" transform="matrix(1, 0, 0, 1, 1, 1)"/><g transform="matrix(1, 0, 0, 1, 11.761423749153975, 11.761423749153968)"><text x="0" y="14.625" style="font: bold 16px -apple-system, BlinkMacSystemFont, &quot;Segoe UI&quot;, &quot;Roboto&quot;, &quot;Oxygen&quot;, &quot;Ubuntu&quot;, &quot;Cantarell&quot;, &quot;Fira Sans&quot;, &quot;Droid Sans&quot;, &quot;Helvetica Neue&quot;, sans-serif" text-anchor="start" fill="#021443" stroke="none" transform="matrix(1, 0, 0, 1, 2, 0)">robots.txt</text></g></g><g transform="matrix(1, 0, 0, 1, 25.761423749154083, 1180.3183599211086)"><path d="M 5,0 L 80.52284749830794,0 C 82.76142374915398,0 85.52284749830794,2.761423749153968 85.52284749830794,5 L 85.52284749830794,36.02284749830794 C 85.52284749830794,38.26142374915397 82.76142374915398,41.02284749830794 80.52284749830794,41.02284749830794 L 5,41.02284749830794 C 2.761423749153968,41.02284749830794 0,38.26142374915397 0,36.02284749830794 L 0,5 C 0,2.761423749153968 2.761423749153968,0 5,0 z" fill="#FF98C3" stroke="none" transform="matrix(1, 0, 0, 1, 1, 1)"/><path d="M 5,0 L 80.52284749830794,0 C 82.76142374915398,0 85.52284749830794,2.761423749153968 85.52284749830794,5 L 85.52284749830794,36.02284749830794 C 85.52284749830794,38.26142374915397 82.76142374915398,41.02284749830794 80.52284749830794,41.02284749830794 L 5,41.02284749830794 C 2.761423749153968,41.02284749830794 0,38.26142374915397 0,36.02284749830794 L 0,5 C 0,2.761423749153968 2.761423749153968,0 5,0 z" fill="none" stroke="#FF98C3" stroke-width="2" stroke-linecap="butt" stroke-linejoin="miter" stroke-miterlimit="10" transform="matrix(1, 0, 0, 1, 1, 1)"/><g transform="matrix(1, 0, 0, 1, 11.761423749153975, 11.761423749153968)"><text x="0" y="14.625" style="font: bold 16px -apple-system, BlinkMacSystemFont, &quot;Segoe UI&quot;, &quot;Roboto&quot;, &quot;Oxygen&quot;, &quot;Ubuntu&quot;, &quot;Cantarell&quot;, &quot;Fira Sans&quot;, &quot;Droid Sans&quot;, &quot;Helvetica Neue&quot;, sans-serif" text-anchor="start" fill="#021443" stroke="none" transform="matrix(1, 0, 0, 1, 2, 0)">App.css</text></g></g><g transform="matrix(1, 0, 0, 1, 210.28427124746202, 1180.3183599211086)"><path d="M 5,0 L 105.52284749830794,0 C 107.76142374915398,0 110.52284749830794,2.761423749153968 110.52284749830794,5 L 110.52284749830794,36.02284749830794 C 110.52284749830794,38.26142374915397 107.76142374915398,41.02284749830794 105.52284749830794,41.02284749830794 L 5,41.02284749830794 C 2.761423749153968,41.02284749830794 0,38.26142374915397 0,36.02284749830794 L 0,5 C 0,2.761423749153968 2.761423749153968,0 5,0 z" fill="#FF98C3" stroke="none" transform="matrix(1, 0, 0, 1, 1, 1)"/><path d="M 5,0 L 105.52284749830794,0 C 107.76142374915398,0 110.52284749830794,2.761423749153968 110.52284749830794,5 L 110.52284749830794,36.02284749830794 C 110.52284749830794,38.26142374915397 107.76142374915398,41.02284749830794 105.52284749830794,41.02284749830794 L 5,41.02284749830794 C 2.761423749153968,41.02284749830794 0,38.26142374915397 0,36.02284749830794 L 0,5 C 0,2.761423749153968 2.761423749153968,0 5,0 z" fill="none" stroke="#FF98C3" stroke-width="2" stroke-linecap="butt" stroke-linejoin="miter" stroke-miterlimit="10" transform="matrix(1, 0, 0, 1, 1, 1)"/><g transform="matrix(1, 0, 0, 1, 11.761423749153975, 11.761423749153968)"><text x="0" y="14.625" style="font: bold 16px -apple-system, BlinkMacSystemFont, &quot;Segoe UI&quot;, &quot;Roboto&quot;, &quot;Oxygen&quot;, &quot;Ubuntu&quot;, &quot;Cantarell&quot;, &quot;Fira Sans&quot;, &quot;Droid Sans&quot;, &quot;Helvetica Neue&quot;, sans-serif" text-anchor="start" fill="#021443" stroke="none" transform="matrix(1, 0, 0, 1, 2, 0)">App.test.js</text></g></g><g transform="matrix(1, 0, 0, 1, 394.8071187457699, 1180.3183599211086)"><path d="M 5,0 L 85.52284749830794,0 C 87.76142374915398,0 90.52284749830794,2.761423749153968 90.52284749830794,5 L 90.52284749830794,36.02284749830794 C 90.52284749830794,38.26142374915397 87.76142374915398,41.02284749830794 85.52284749830794,41.02284749830794 L 5,41.02284749830794 C 2.761423749153968,41.02284749830794 0,38.26142374915397 0,36.02284749830794 L 0,5 C 0,2.761423749153968 2.761423749153968,0 5,0 z" fill="#FF98C3" stroke="none" transform="matrix(1, 0, 0, 1, 1, 1)"/><path d="M 5,0 L 85.52284749830794,0 C 87.76142374915398,0 90.52284749830794,2.761423749153968 90.52284749830794,5 L 90.52284749830794,36.02284749830794 C 90.52284749830794,38.26142374915397 87.76142374915398,41.02284749830794 85.52284749830794,41.02284749830794 L 5,41.02284749830794 C 2.761423749153968,41.02284749830794 0,38.26142374915397 0,36.02284749830794 L 0,5 C 0,2.761423749153968 2.761423749153968,0 5,0 z" fill="none" stroke="#FF98C3" stroke-width="2" stroke-linecap="butt" stroke-linejoin="miter" stroke-miterlimit="10" transform="matrix(1, 0, 0, 1, 1, 1)"/><g transform="matrix(1, 0, 0, 1, 11.761423749153975, 11.761423749153968)"><text x="0" y="14.625" style="font: bold 16px -apple-system, BlinkMacSystemFont, &quot;Segoe UI&quot;, &quot;Roboto&quot;, &quot;Oxygen&quot;, &quot;Ubuntu&quot;, &quot;Cantarell&quot;, &quot;Fira Sans&quot;, &quot;Droid Sans&quot;, &quot;Helvetica Neue&quot;, sans-serif" text-anchor="start" fill="#021443" stroke="none" transform="matrix(1, 0, 0, 1, 2, 0)">logo.svg</text></g></g><g transform="matrix(1, 0, 0, 1, 579.3299662440779, 1180.3183599211086)"><path d="M 5,0 L 167.52284749830793,0 C 169.76142374915395,0 172.52284749830793,2.761423749153968 172.52284749830793,5 L 172.52284749830793,36.02284749830794 C 172.52284749830793,38.26142374915397 169.76142374915395,41.02284749830794 167.52284749830793,41.02284749830794 L 5,41.02284749830794 C 2.761423749153968,41.02284749830794 0,38.26142374915397 0,36.02284749830794 L 0,5 C 0,2.761423749153968 2.761423749153968,0 5,0 z" fill="#FF98C3" stroke="none" transform="matrix(1, 0, 0, 1, 1, 1)"/><path d="M 5,0 L 167.52284749830793,0 C 169.76142374915395,0 172.52284749830793,2.761423749153968 172.52284749830793,5 L 172.52284749830793,36.02284749830794 C 172.52284749830793,38.26142374915397 169.76142374915395,41.02284749830794 167.52284749830793,41.02284749830794 L 5,41.02284749830794 C 2.761423749153968,41.02284749830794 0,38.26142374915397 0,36.02284749830794 L 0,5 C 0,2.761423749153968 2.761423749153968,0 5,0 z" fill="none" stroke="#FF98C3" stroke-width="2" stroke-linecap="butt" stroke-linejoin="miter" stroke-miterlimit="10" transform="matrix(1, 0, 0, 1, 1, 1)"/><g transform="matrix(1, 0, 0, 1, 11.761423749153954, 11.761423749153968)"><text x="0" y="14.625" style="font: bold 16px -apple-system, BlinkMacSystemFont, &quot;Segoe UI&quot;, &quot;Roboto&quot;, &quot;Oxygen&quot;, &quot;Ubuntu&quot;, &quot;Cantarell&quot;, &quot;Fira Sans&quot;, &quot;Droid Sans&quot;, &quot;Helvetica Neue&quot;, sans-serif" text-anchor="start" fill="#021443" stroke="none" transform="matrix(1, 0, 0, 1, 2, 0)">reportWebVitals.js</text></g></g><g transform="matrix(1, 0, 0, 1, 763.8528137423858, 1180.3183599211086)"><path d="M 5,0 L 124.52284749830793,0 C 126.76142374915396,0 129.52284749830793,2.761423749153968 129.52284749830793,5 L 129.52284749830793,36.02284749830794 C 129.52284749830793,38.26142374915397 126.76142374915396,41.02284749830794 124.52284749830793,41.02284749830794 L 5,41.02284749830794 C 2.761423749153968,41.02284749830794 0,38.26142374915397 0,36.02284749830794 L 0,5 C 0,2.761423749153968 2.761423749153968,0 5,0 z" fill="#FF98C3" stroke="none" transform="matrix(1, 0, 0, 1, 1, 1)"/><path d="M 5,0 L 124.52284749830793,0 C 126.76142374915396,0 129.52284749830793,2.761423749153968 129.52284749830793,5 L 129.52284749830793,36.02284749830794 C 129.52284749830793,38.26142374915397 126.76142374915396,41.02284749830794 124.52284749830793,41.02284749830794 L 5,41.02284749830794 C 2.761423749153968,41.02284749830794 0,38.26142374915397 0,36.02284749830794 L 0,5 C 0,2.761423749153968 2.761423749153968,0 5,0 z" fill="none" stroke="#FF98C3" stroke-width="2" stroke-linecap="butt" stroke-linejoin="miter" stroke-miterlimit="10" transform="matrix(1, 0, 0, 1, 1, 1)"/><g transform="matrix(1, 0, 0, 1, 11.76142374915396, 11.761423749153968)"><text x="0" y="14.625" style="font: bold 16px -apple-system, BlinkMacSystemFont, &quot;Segoe UI&quot;, &quot;Roboto&quot;, &quot;Oxygen&quot;, &quot;Ubuntu&quot;, &quot;Cantarell&quot;, &quot;Fira Sans&quot;, &quot;Droid Sans&quot;, &quot;Helvetica Neue&quot;, sans-serif" text-anchor="start" fill="#021443" stroke="none" transform="matrix(1, 0, 0, 1, 2, 0)">setupTests.js</text></g></g></g></g><clipPath id="mainClip1327"><rect x="0" y="0" width="1765px" height="1335px"/></clipPath></svg>